%TF.GenerationSoftware,KiCad,Pcbnew,7.0.8*%
%TF.CreationDate,2024-11-14T21:46:59-08:00*%
%TF.ProjectId,CS8416-PCB5122,43533834-3136-42d5-9043-42353132322e,rev?*%
%TF.SameCoordinates,Original*%
%TF.FileFunction,Copper,L3,Inr*%
%TF.FilePolarity,Positive*%
%FSLAX46Y46*%
G04 Gerber Fmt 4.6, Leading zero omitted, Abs format (unit mm)*
G04 Created by KiCad (PCBNEW 7.0.8) date 2024-11-14 21:46:59*
%MOMM*%
%LPD*%
G01*
G04 APERTURE LIST*
G04 Aperture macros list*
%AMRoundRect*
0 Rectangle with rounded corners*
0 $1 Rounding radius*
0 $2 $3 $4 $5 $6 $7 $8 $9 X,Y pos of 4 corners*
0 Add a 4 corners polygon primitive as box body*
4,1,4,$2,$3,$4,$5,$6,$7,$8,$9,$2,$3,0*
0 Add four circle primitives for the rounded corners*
1,1,$1+$1,$2,$3*
1,1,$1+$1,$4,$5*
1,1,$1+$1,$6,$7*
1,1,$1+$1,$8,$9*
0 Add four rect primitives between the rounded corners*
20,1,$1+$1,$2,$3,$4,$5,0*
20,1,$1+$1,$4,$5,$6,$7,0*
20,1,$1+$1,$6,$7,$8,$9,0*
20,1,$1+$1,$8,$9,$2,$3,0*%
G04 Aperture macros list end*
%TA.AperFunction,ComponentPad*%
%ADD10O,1.700000X1.700000*%
%TD*%
%TA.AperFunction,ComponentPad*%
%ADD11R,1.700000X1.700000*%
%TD*%
%TA.AperFunction,ComponentPad*%
%ADD12C,1.000000*%
%TD*%
%TA.AperFunction,ComponentPad*%
%ADD13R,1.600000X1.600000*%
%TD*%
%TA.AperFunction,ComponentPad*%
%ADD14C,1.600000*%
%TD*%
%TA.AperFunction,ComponentPad*%
%ADD15RoundRect,0.250000X0.725000X-0.600000X0.725000X0.600000X-0.725000X0.600000X-0.725000X-0.600000X0*%
%TD*%
%TA.AperFunction,ComponentPad*%
%ADD16O,1.950000X1.700000*%
%TD*%
%TA.AperFunction,ComponentPad*%
%ADD17O,1.200000X1.750000*%
%TD*%
%TA.AperFunction,ComponentPad*%
%ADD18RoundRect,0.250000X-0.350000X-0.625000X0.350000X-0.625000X0.350000X0.625000X-0.350000X0.625000X0*%
%TD*%
%TA.AperFunction,ComponentPad*%
%ADD19RoundRect,0.250000X0.750000X-0.600000X0.750000X0.600000X-0.750000X0.600000X-0.750000X-0.600000X0*%
%TD*%
%TA.AperFunction,ComponentPad*%
%ADD20O,2.000000X1.700000*%
%TD*%
%TA.AperFunction,ComponentPad*%
%ADD21O,1.750000X1.200000*%
%TD*%
%TA.AperFunction,ComponentPad*%
%ADD22RoundRect,0.250000X0.625000X-0.350000X0.625000X0.350000X-0.625000X0.350000X-0.625000X-0.350000X0*%
%TD*%
%TA.AperFunction,ViaPad*%
%ADD23C,0.500000*%
%TD*%
%TA.AperFunction,ViaPad*%
%ADD24C,1.000000*%
%TD*%
%TA.AperFunction,Conductor*%
%ADD25C,0.300000*%
%TD*%
%TA.AperFunction,Conductor*%
%ADD26C,0.800000*%
%TD*%
G04 APERTURE END LIST*
D10*
%TO.N,3V3*%
%TO.C,J11*%
X107513748Y-114215000D03*
D11*
%TO.N,Net-(J11-Pin_1)*%
X107513748Y-116755000D03*
%TD*%
D12*
%TO.N,SPDIF2_IN*%
%TO.C,T2*%
X63433748Y-151715000D03*
%TO.N,SPDIF2_GND*%
X63433748Y-156795000D03*
%TO.N,AGND*%
X73593748Y-156795000D03*
%TO.N,SPDIF2*%
X73593748Y-151715000D03*
%TD*%
D11*
%TO.N,I2S_DATA*%
%TO.C,J14*%
X88093748Y-149255000D03*
D10*
%TO.N,I2S_LRCLK*%
X85553748Y-149255000D03*
%TO.N,I2S_BCLK*%
X83013748Y-149255000D03*
%TO.N,I2S_SCLK*%
X80473748Y-149255000D03*
%TD*%
D11*
%TO.N,GND*%
%TO.C,J13*%
X110013748Y-140255000D03*
D10*
%TO.N,OMCK*%
X110013748Y-142795000D03*
%TD*%
%TO.N,OUTR*%
%TO.C,J4*%
X78568748Y-112755000D03*
%TO.N,AGND*%
X76028748Y-112755000D03*
D11*
%TO.N,OUTL*%
X73488748Y-112755000D03*
%TD*%
D13*
%TO.N,3V3A*%
%TO.C,C14*%
X135013748Y-153337379D03*
D14*
%TO.N,GND*%
X135013748Y-150837379D03*
%TD*%
D15*
%TO.N,unconnected-(J6-Pin_1-Pad1)*%
%TO.C,J6*%
X144013748Y-130755000D03*
D16*
%TO.N,3V3*%
X144013748Y-128255000D03*
%TO.N,GND*%
X144013748Y-125755000D03*
%TO.N,5V*%
X144013748Y-123255000D03*
%TD*%
D12*
%TO.N,SPDIF1_IN*%
%TO.C,T1*%
X63458748Y-137065000D03*
%TO.N,SPDIF1_GND*%
X63458748Y-142145000D03*
%TO.N,AGND*%
X73618748Y-142145000D03*
%TO.N,SPDIF1*%
X73618748Y-137065000D03*
%TD*%
D17*
%TO.N,OUTR*%
%TO.C,J1*%
X90213748Y-113355000D03*
%TO.N,AGND_OUT*%
X88213748Y-113355000D03*
%TO.N,OUTL*%
X86213748Y-113355000D03*
D18*
%TO.N,AGND_OUT*%
X84213748Y-113355000D03*
%TD*%
D10*
%TO.N,AGND_OUT*%
%TO.C,J3*%
X74513748Y-119455000D03*
D11*
%TO.N,AGND*%
X74513748Y-121995000D03*
%TD*%
D19*
%TO.N,SPDIF1_IN*%
%TO.C,J16*%
X56013748Y-141255000D03*
D20*
%TO.N,SPDIF1_GND*%
X56013748Y-138755000D03*
%TD*%
D10*
%TO.N,GND*%
%TO.C,J8*%
X136513748Y-134215000D03*
D11*
%TO.N,AGND*%
X136513748Y-136755000D03*
%TD*%
D10*
%TO.N,GND*%
%TO.C,J17*%
X88576248Y-154165000D03*
D11*
%TO.N,AGND*%
X88576248Y-156705000D03*
%TD*%
D10*
%TO.N,3V3*%
%TO.C,J18*%
X111553748Y-158880000D03*
D11*
%TO.N,Net-(J18-Pin_1)*%
X109013748Y-158880000D03*
%TD*%
D21*
%TO.N,SDA*%
%TO.C,J7*%
X55463748Y-125755000D03*
D22*
%TO.N,SCL*%
X55463748Y-127755000D03*
%TD*%
D10*
%TO.N,3V3*%
%TO.C,J15*%
X111553748Y-150255000D03*
D11*
%TO.N,Net-(J15-Pin_1)*%
X109013748Y-150255000D03*
%TD*%
D10*
%TO.N,3V3*%
%TO.C,J12*%
X105988748Y-134870000D03*
D11*
%TO.N,Net-(J12-Pin_1)*%
X105988748Y-132330000D03*
%TD*%
%TO.N,AGND*%
%TO.C,J9*%
X120553748Y-139755000D03*
D10*
%TO.N,GND*%
X118013748Y-139755000D03*
%TD*%
D13*
%TO.N,3V3*%
%TO.C,C8*%
X135013748Y-144796189D03*
D14*
%TO.N,GND*%
X135013748Y-142296189D03*
%TD*%
D19*
%TO.N,SPDIF2_IN*%
%TO.C,J20*%
X55988748Y-156005000D03*
D20*
%TO.N,SPDIF2_GND*%
X55988748Y-153505000D03*
%TD*%
D18*
%TO.N,GND*%
%TO.C,J22*%
X124913748Y-161705000D03*
D17*
%TO.N,GPO1*%
X126913748Y-161705000D03*
%TD*%
D18*
%TO.N,GND*%
%TO.C,J10*%
X65513748Y-113255000D03*
D17*
%TO.N,RESET*%
X67513748Y-113255000D03*
%TD*%
D13*
%TO.N,5V*%
%TO.C,C1*%
X129513748Y-137755000D03*
D14*
%TO.N,GND*%
X129513748Y-135255000D03*
%TD*%
D11*
%TO.N,AGND*%
%TO.C,J23*%
X66540000Y-161160000D03*
D10*
%TO.N,SPDIF2_GND*%
X64000000Y-161160000D03*
%TD*%
D11*
%TO.N,AGND*%
%TO.C,J19*%
X66565000Y-146105000D03*
D10*
%TO.N,SPDIF1_GND*%
X64025000Y-146105000D03*
%TD*%
D17*
%TO.N,OUTR*%
%TO.C,J2*%
X100313748Y-113355000D03*
%TO.N,AGND_OUT*%
X98313748Y-113355000D03*
D18*
%TO.N,OUTL*%
X96313748Y-113355000D03*
%TD*%
D21*
%TO.N,SDA*%
%TO.C,J5*%
X62963748Y-125755000D03*
D22*
%TO.N,SCL*%
X62963748Y-127755000D03*
%TD*%
D18*
%TO.N,GND*%
%TO.C,J21*%
X117013748Y-161755000D03*
D17*
%TO.N,GPO0*%
X119013748Y-161755000D03*
%TD*%
D23*
%TO.N,SDA*%
X102513748Y-148755000D03*
%TO.N,SCL*%
X103513748Y-148755000D03*
%TO.N,OMCK*%
X103013748Y-140255000D03*
X98013748Y-141755000D03*
%TO.N,AGND*%
X100013748Y-158255000D03*
X102013748Y-157255000D03*
%TO.N,GND*%
X104013748Y-157255000D03*
%TO.N,3V3*%
X111513748Y-130195000D03*
%TO.N,GND*%
X113013748Y-124755000D03*
%TO.N,Net-(J11-Pin_1)*%
X111513748Y-116755000D03*
%TO.N,SDA*%
X73513748Y-125755000D03*
X67013748Y-125755000D03*
%TO.N,SCL*%
X71013748Y-127755000D03*
X68013748Y-127755000D03*
%TO.N,GND*%
X115513748Y-117755000D03*
X110013748Y-114755000D03*
D24*
%TO.N,3V3A*%
X93513748Y-163755000D03*
X120013748Y-129255000D03*
X115013748Y-149255000D03*
D23*
%TO.N,GND*%
X62013748Y-112755000D03*
%TO.N,RESET*%
X95013748Y-152755000D03*
X97513748Y-154817610D03*
%TO.N,GPO1*%
X101014297Y-151255937D03*
X103513748Y-153755000D03*
%TO.N,GPO0*%
X112513748Y-152255000D03*
X107013748Y-150755000D03*
%TO.N,GND*%
X131513748Y-164755000D03*
X131513748Y-159255000D03*
X141513748Y-147755000D03*
D24*
X118513748Y-154755000D03*
X129513748Y-153755000D03*
X122013748Y-144255000D03*
%TO.N,5V*%
X127513748Y-143255000D03*
%TO.N,3V3A*%
X129513748Y-151255000D03*
D23*
%TO.N,I2S_DATA*%
X83013748Y-140755000D03*
X85368748Y-134110000D03*
%TO.N,I2S_LRCLK*%
X82013748Y-139255000D03*
X83513748Y-136255000D03*
%TO.N,I2S_BCLK*%
X81013748Y-140255000D03*
X81513748Y-136255000D03*
%TO.N,AGND*%
X94513748Y-155755000D03*
%TO.N,Net-(U3-OLRCK)*%
X87013748Y-139255000D03*
X87013748Y-141255000D03*
%TO.N,GND*%
X99513748Y-148755000D03*
X94513748Y-137255000D03*
X105013748Y-141255000D03*
X95013748Y-144255000D03*
X100513748Y-144555000D03*
X110013748Y-134755000D03*
X121013748Y-131755000D03*
X118513748Y-132255000D03*
X107013748Y-124755000D03*
%TO.N,OUTL*%
X127013748Y-121255000D03*
%TO.N,OUTR*%
X132013748Y-117255000D03*
%TO.N,AGND*%
X127513748Y-118255000D03*
X118513748Y-123755000D03*
X118513748Y-119755000D03*
X126013748Y-116755000D03*
X131513748Y-112255000D03*
X132566781Y-121808033D03*
X127513748Y-126255000D03*
%TO.N,GND*%
X108013748Y-152255000D03*
X107013748Y-162755000D03*
%TO.N,AGND*%
X56013748Y-148255000D03*
X55513748Y-133255000D03*
%TD*%
D25*
%TO.N,SDA*%
X84513748Y-146255000D02*
X73513748Y-135255000D01*
%TO.N,SCL*%
X87788724Y-146755000D02*
X82013748Y-146755000D01*
%TO.N,SDA*%
X73513748Y-135255000D02*
X73513748Y-125755000D01*
X100013748Y-146255000D02*
X84513748Y-146255000D01*
X102513748Y-148755000D02*
X100013748Y-146255000D01*
%TO.N,SCL*%
X102913748Y-149355000D02*
X90388724Y-149355000D01*
X103513748Y-148755000D02*
X102913748Y-149355000D01*
X90388724Y-149355000D02*
X87788724Y-146755000D01*
X82013748Y-146755000D02*
X68013748Y-132755000D01*
X68013748Y-132755000D02*
X68013748Y-127755000D01*
%TO.N,OUTR*%
X105313748Y-118355000D02*
X100313748Y-113355000D01*
X132013748Y-117255000D02*
X127665219Y-117255000D01*
X127665219Y-117255000D02*
X126565219Y-118355000D01*
X126565219Y-118355000D02*
X105313748Y-118355000D01*
D26*
%TO.N,3V3*%
X106838748Y-134870000D02*
X105988748Y-134870000D01*
X146013748Y-126255000D02*
X146013748Y-119755000D01*
X130417732Y-122755000D02*
X111513748Y-122755000D01*
X144013748Y-128255000D02*
X146013748Y-126255000D01*
X146013748Y-119755000D02*
X133417732Y-119755000D01*
X133417732Y-119755000D02*
X130417732Y-122755000D01*
X111513748Y-122755000D02*
X111513748Y-130195000D01*
X111513748Y-130195000D02*
X106838748Y-134870000D01*
%TO.N,3V3A*%
X115013748Y-149255000D02*
X115013748Y-151755000D01*
X111513748Y-155255000D02*
X110090220Y-155255000D01*
X115013748Y-151755000D02*
X111513748Y-155255000D01*
X103013748Y-162331472D02*
X103013748Y-163755000D01*
X110090220Y-155255000D02*
X103013748Y-162331472D01*
X103013748Y-163755000D02*
X93513748Y-163755000D01*
X115013748Y-149255000D02*
X115013748Y-138255000D01*
X115013748Y-138255000D02*
X120013748Y-133255000D01*
X120013748Y-133255000D02*
X120013748Y-129255000D01*
%TO.N,5V*%
X129513748Y-141255000D02*
X127513748Y-143255000D01*
X129513748Y-137755000D02*
X129513748Y-141255000D01*
%TO.N,3V3A*%
X135013748Y-153337379D02*
X131596127Y-153337379D01*
X131596127Y-153337379D02*
X129513748Y-151255000D01*
%TO.N,3V3*%
X144013748Y-128255000D02*
X143986666Y-128255000D01*
X143986666Y-128255000D02*
X137963748Y-134277918D01*
X137963748Y-134277918D02*
X137963748Y-141846189D01*
X137963748Y-141846189D02*
X135013748Y-144796189D01*
%TO.N,5V*%
X144013748Y-123255000D02*
X129513748Y-137755000D01*
D25*
%TO.N,OUTL*%
X127013748Y-121255000D02*
X104213748Y-121255000D01*
X104213748Y-121255000D02*
X96313748Y-113355000D01*
%TD*%
M02*
