%TF.GenerationSoftware,KiCad,Pcbnew,7.0.8*%
%TF.CreationDate,2024-11-14T21:46:59-08:00*%
%TF.ProjectId,CS8416-PCB5122,43533834-3136-42d5-9043-42353132322e,rev?*%
%TF.SameCoordinates,Original*%
%TF.FileFunction,Copper,L1,Top*%
%TF.FilePolarity,Positive*%
%FSLAX46Y46*%
G04 Gerber Fmt 4.6, Leading zero omitted, Abs format (unit mm)*
G04 Created by KiCad (PCBNEW 7.0.8) date 2024-11-14 21:46:59*
%MOMM*%
%LPD*%
G01*
G04 APERTURE LIST*
G04 Aperture macros list*
%AMRoundRect*
0 Rectangle with rounded corners*
0 $1 Rounding radius*
0 $2 $3 $4 $5 $6 $7 $8 $9 X,Y pos of 4 corners*
0 Add a 4 corners polygon primitive as box body*
4,1,4,$2,$3,$4,$5,$6,$7,$8,$9,$2,$3,0*
0 Add four circle primitives for the rounded corners*
1,1,$1+$1,$2,$3*
1,1,$1+$1,$4,$5*
1,1,$1+$1,$6,$7*
1,1,$1+$1,$8,$9*
0 Add four rect primitives between the rounded corners*
20,1,$1+$1,$2,$3,$4,$5,0*
20,1,$1+$1,$4,$5,$6,$7,0*
20,1,$1+$1,$6,$7,$8,$9,0*
20,1,$1+$1,$8,$9,$2,$3,0*%
G04 Aperture macros list end*
%TA.AperFunction,ComponentPad*%
%ADD10O,1.700000X1.700000*%
%TD*%
%TA.AperFunction,ComponentPad*%
%ADD11R,1.700000X1.700000*%
%TD*%
%TA.AperFunction,ComponentPad*%
%ADD12C,1.000000*%
%TD*%
%TA.AperFunction,SMDPad,CuDef*%
%ADD13RoundRect,0.250000X0.412500X0.650000X-0.412500X0.650000X-0.412500X-0.650000X0.412500X-0.650000X0*%
%TD*%
%TA.AperFunction,SMDPad,CuDef*%
%ADD14RoundRect,0.250000X-0.325000X-0.450000X0.325000X-0.450000X0.325000X0.450000X-0.325000X0.450000X0*%
%TD*%
%TA.AperFunction,SMDPad,CuDef*%
%ADD15RoundRect,0.250000X-0.650000X0.412500X-0.650000X-0.412500X0.650000X-0.412500X0.650000X0.412500X0*%
%TD*%
%TA.AperFunction,SMDPad,CuDef*%
%ADD16RoundRect,0.237500X0.237500X-0.250000X0.237500X0.250000X-0.237500X0.250000X-0.237500X-0.250000X0*%
%TD*%
%TA.AperFunction,ComponentPad*%
%ADD17R,1.600000X1.600000*%
%TD*%
%TA.AperFunction,ComponentPad*%
%ADD18C,1.600000*%
%TD*%
%TA.AperFunction,SMDPad,CuDef*%
%ADD19RoundRect,0.250000X-0.412500X-0.650000X0.412500X-0.650000X0.412500X0.650000X-0.412500X0.650000X0*%
%TD*%
%TA.AperFunction,SMDPad,CuDef*%
%ADD20RoundRect,0.250000X0.650000X-0.412500X0.650000X0.412500X-0.650000X0.412500X-0.650000X-0.412500X0*%
%TD*%
%TA.AperFunction,ComponentPad*%
%ADD21RoundRect,0.250000X0.725000X-0.600000X0.725000X0.600000X-0.725000X0.600000X-0.725000X-0.600000X0*%
%TD*%
%TA.AperFunction,ComponentPad*%
%ADD22O,1.950000X1.700000*%
%TD*%
%TA.AperFunction,SMDPad,CuDef*%
%ADD23R,0.400000X1.100000*%
%TD*%
%TA.AperFunction,SMDPad,CuDef*%
%ADD24R,1.542500X1.200000*%
%TD*%
%TA.AperFunction,SMDPad,CuDef*%
%ADD25RoundRect,0.237500X0.250000X0.237500X-0.250000X0.237500X-0.250000X-0.237500X0.250000X-0.237500X0*%
%TD*%
%TA.AperFunction,SMDPad,CuDef*%
%ADD26R,2.000000X1.500000*%
%TD*%
%TA.AperFunction,SMDPad,CuDef*%
%ADD27R,2.000000X3.800000*%
%TD*%
%TA.AperFunction,SMDPad,CuDef*%
%ADD28RoundRect,0.250000X-0.450000X0.325000X-0.450000X-0.325000X0.450000X-0.325000X0.450000X0.325000X0*%
%TD*%
%TA.AperFunction,SMDPad,CuDef*%
%ADD29RoundRect,0.250000X-0.337500X-0.475000X0.337500X-0.475000X0.337500X0.475000X-0.337500X0.475000X0*%
%TD*%
%TA.AperFunction,SMDPad,CuDef*%
%ADD30RoundRect,0.237500X-0.237500X0.250000X-0.237500X-0.250000X0.237500X-0.250000X0.237500X0.250000X0*%
%TD*%
%TA.AperFunction,SMDPad,CuDef*%
%ADD31RoundRect,0.237500X-0.250000X-0.237500X0.250000X-0.237500X0.250000X0.237500X-0.250000X0.237500X0*%
%TD*%
%TA.AperFunction,ComponentPad*%
%ADD32O,1.200000X1.750000*%
%TD*%
%TA.AperFunction,ComponentPad*%
%ADD33RoundRect,0.250000X-0.350000X-0.625000X0.350000X-0.625000X0.350000X0.625000X-0.350000X0.625000X0*%
%TD*%
%TA.AperFunction,SMDPad,CuDef*%
%ADD34RoundRect,0.100000X0.637500X0.100000X-0.637500X0.100000X-0.637500X-0.100000X0.637500X-0.100000X0*%
%TD*%
%TA.AperFunction,ComponentPad*%
%ADD35RoundRect,0.250000X0.750000X-0.600000X0.750000X0.600000X-0.750000X0.600000X-0.750000X-0.600000X0*%
%TD*%
%TA.AperFunction,ComponentPad*%
%ADD36O,2.000000X1.700000*%
%TD*%
%TA.AperFunction,SMDPad,CuDef*%
%ADD37RoundRect,0.250000X0.475000X-0.250000X0.475000X0.250000X-0.475000X0.250000X-0.475000X-0.250000X0*%
%TD*%
%TA.AperFunction,SMDPad,CuDef*%
%ADD38RoundRect,0.250000X0.250000X0.475000X-0.250000X0.475000X-0.250000X-0.475000X0.250000X-0.475000X0*%
%TD*%
%TA.AperFunction,ComponentPad*%
%ADD39O,1.750000X1.200000*%
%TD*%
%TA.AperFunction,ComponentPad*%
%ADD40RoundRect,0.250000X0.625000X-0.350000X0.625000X0.350000X-0.625000X0.350000X-0.625000X-0.350000X0*%
%TD*%
%TA.AperFunction,SMDPad,CuDef*%
%ADD41RoundRect,0.250000X-0.475000X0.250000X-0.475000X-0.250000X0.475000X-0.250000X0.475000X0.250000X0*%
%TD*%
%TA.AperFunction,SMDPad,CuDef*%
%ADD42RoundRect,0.250000X-0.250000X-0.475000X0.250000X-0.475000X0.250000X0.475000X-0.250000X0.475000X0*%
%TD*%
%TA.AperFunction,SMDPad,CuDef*%
%ADD43RoundRect,0.250000X0.450000X-0.325000X0.450000X0.325000X-0.450000X0.325000X-0.450000X-0.325000X0*%
%TD*%
%TA.AperFunction,SMDPad,CuDef*%
%ADD44R,1.400000X1.200000*%
%TD*%
%TA.AperFunction,ViaPad*%
%ADD45C,0.500000*%
%TD*%
%TA.AperFunction,ViaPad*%
%ADD46C,1.000000*%
%TD*%
%TA.AperFunction,Conductor*%
%ADD47C,0.300000*%
%TD*%
%TA.AperFunction,Conductor*%
%ADD48C,0.400000*%
%TD*%
%TA.AperFunction,Conductor*%
%ADD49C,0.800000*%
%TD*%
G04 APERTURE END LIST*
D10*
%TO.P,J11,2,Pin_2*%
%TO.N,3V3*%
X107513748Y-114215000D03*
D11*
%TO.P,J11,1,Pin_1*%
%TO.N,Net-(J11-Pin_1)*%
X107513748Y-116755000D03*
%TD*%
D12*
%TO.P,T2,1,AA*%
%TO.N,SPDIF2_IN*%
X63433748Y-151715000D03*
%TO.P,T2,2,AB*%
%TO.N,SPDIF2_GND*%
X63433748Y-156795000D03*
%TO.P,T2,3,SA*%
%TO.N,AGND*%
X73593748Y-156795000D03*
%TO.P,T2,4,SB*%
%TO.N,SPDIF2*%
X73593748Y-151715000D03*
%TD*%
D13*
%TO.P,C18,2*%
%TO.N,GND*%
X107513748Y-126255000D03*
%TO.P,C18,1*%
%TO.N,Net-(U2-LDOO)*%
X110638748Y-126255000D03*
%TD*%
D14*
%TO.P,D3,1,K*%
%TO.N,Net-(D3-K)*%
X135901248Y-160355000D03*
%TO.P,D3,2,A*%
%TO.N,GPO0*%
X137951248Y-160355000D03*
%TD*%
D11*
%TO.P,J14,1,Pin_1*%
%TO.N,I2S_DATA*%
X88093748Y-149255000D03*
D10*
%TO.P,J14,2,Pin_2*%
%TO.N,I2S_LRCLK*%
X85553748Y-149255000D03*
%TO.P,J14,3,Pin_3*%
%TO.N,I2S_BCLK*%
X83013748Y-149255000D03*
%TO.P,J14,4,Pin_4*%
%TO.N,I2S_SCLK*%
X80473748Y-149255000D03*
%TD*%
D15*
%TO.P,C13,2*%
%TO.N,GND*%
X122833748Y-131331248D03*
%TO.P,C13,1*%
%TO.N,3V3A*%
X122833748Y-128206248D03*
%TD*%
D16*
%TO.P,R2,2*%
%TO.N,Net-(D2-K)*%
X142778748Y-144850834D03*
%TO.P,R2,1*%
%TO.N,GND*%
X142778748Y-146675834D03*
%TD*%
D13*
%TO.P,C21,1*%
%TO.N,GND*%
X104608748Y-143205000D03*
%TO.P,C21,2*%
%TO.N,3V3*%
X101483748Y-143205000D03*
%TD*%
D11*
%TO.P,J13,1,Pin_1*%
%TO.N,GND*%
X110013748Y-140255000D03*
D10*
%TO.P,J13,2,Pin_2*%
%TO.N,OMCK*%
X110013748Y-142795000D03*
%TD*%
%TO.P,J4,3,Pin_3*%
%TO.N,OUTR*%
X78568748Y-112755000D03*
%TO.P,J4,2,Pin_2*%
%TO.N,AGND*%
X76028748Y-112755000D03*
D11*
%TO.P,J4,1,Pin_1*%
%TO.N,OUTL*%
X73488748Y-112755000D03*
%TD*%
D17*
%TO.P,C14,1*%
%TO.N,3V3A*%
X135013748Y-153337379D03*
D18*
%TO.P,C14,2*%
%TO.N,GND*%
X135013748Y-150837379D03*
%TD*%
D19*
%TO.P,C22,1*%
%TO.N,GND*%
X96183748Y-143205000D03*
%TO.P,C22,2*%
%TO.N,3V3*%
X99308748Y-143205000D03*
%TD*%
D20*
%TO.P,C7,2*%
%TO.N,3V3A*%
X116979036Y-150382343D03*
%TO.P,C7,1*%
%TO.N,GND*%
X116979036Y-153507343D03*
%TD*%
D19*
%TO.P,C2,2*%
%TO.N,5V*%
X126741536Y-145544843D03*
%TO.P,C2,1*%
%TO.N,GND*%
X123616536Y-145544843D03*
%TD*%
D21*
%TO.P,J6,1,Pin_1*%
%TO.N,unconnected-(J6-Pin_1-Pad1)*%
X144013748Y-130755000D03*
D22*
%TO.P,J6,2,Pin_2*%
%TO.N,3V3*%
X144013748Y-128255000D03*
%TO.P,J6,3,Pin_3*%
%TO.N,GND*%
X144013748Y-125755000D03*
%TO.P,J6,4,Pin_4*%
%TO.N,5V*%
X144013748Y-123255000D03*
%TD*%
D23*
%TO.P,U3,1,RXP3*%
%TO.N,AGND*%
X95387050Y-156018110D03*
%TO.P,U3,2,RXP2*%
X96037050Y-156018110D03*
%TO.P,U3,3,RXP1*%
%TO.N,Net-(U3-RXP1)*%
X96687050Y-156018110D03*
%TO.P,U3,4,RXP0*%
%TO.N,Net-(U3-RXP0)*%
X97337050Y-156018110D03*
%TO.P,U3,5,RXN*%
%TO.N,Net-(U3-RXN)*%
X97987050Y-156018110D03*
%TO.P,U3,6,VA*%
%TO.N,3V3A*%
X98637050Y-156018110D03*
%TO.P,U3,7,AGND*%
%TO.N,AGND*%
X99287050Y-156018110D03*
%TO.P,U3,8,FILT*%
%TO.N,Net-(U3-FILT)*%
X99937050Y-156018110D03*
%TO.P,U3,9,~{RESET}*%
%TO.N,RESET*%
X100587050Y-156018110D03*
%TO.P,U3,10,RXP4/RXSEL1*%
%TO.N,AGND*%
X101237050Y-156018110D03*
%TO.P,U3,11,RXP5/RXSEL0*%
X101887050Y-156018110D03*
%TO.P,U3,12,RXP6/TXSEL1*%
X102537050Y-156018110D03*
%TO.P,U3,13,RXP7/TXSEL0*%
X103187050Y-156018110D03*
%TO.P,U3,14,AD0/~{CS}/NV/RERR*%
%TO.N,GND*%
X103837050Y-156018110D03*
%TO.P,U3,15,AD1/CDIN/~{AUDIO}*%
%TO.N,Net-(J15-Pin_1)*%
X103837050Y-150318110D03*
%TO.P,U3,16,SCL/CCLK/96KHZ*%
%TO.N,SCL*%
X103187050Y-150318110D03*
%TO.P,U3,17,SDA/CDOUT/RCBL*%
%TO.N,SDA*%
X102537050Y-150318110D03*
%TO.P,U3,18,U/AD2/GPO2*%
%TO.N,Net-(J18-Pin_1)*%
X101887050Y-150318110D03*
%TO.P,U3,19,C/GPO1*%
%TO.N,GPO1*%
X101237050Y-150318110D03*
%TO.P,U3,20,TX/GPO0*%
%TO.N,GPO0*%
X100587050Y-150318110D03*
%TO.P,U3,21,VL*%
%TO.N,3V3*%
X99937050Y-150318110D03*
%TO.P,U3,22,DGND*%
%TO.N,GND*%
X99287050Y-150318110D03*
%TO.P,U3,23,VD*%
%TO.N,3V3*%
X98637050Y-150318110D03*
%TO.P,U3,24,RMCK*%
%TO.N,Net-(U3-RMCK)*%
X97987050Y-150318110D03*
%TO.P,U3,25,OMCK*%
%TO.N,OMCK*%
X97337050Y-150318110D03*
%TO.P,U3,26,SDOUT*%
%TO.N,Net-(U3-SDOUT)*%
X96687050Y-150318110D03*
%TO.P,U3,27,OSCLK*%
%TO.N,Net-(U3-OSCLK)*%
X96037050Y-150318110D03*
%TO.P,U3,28,OLRCK*%
%TO.N,Net-(U3-OLRCK)*%
X95387050Y-150318110D03*
D24*
%TO.P,U3,29*%
%TO.N,N/C*%
X97298300Y-153768110D03*
X98840800Y-153768110D03*
X100383300Y-153768110D03*
X101925800Y-153768110D03*
X97298300Y-152568110D03*
X98840800Y-152568110D03*
X100383300Y-152568110D03*
X101925800Y-152568110D03*
%TD*%
D16*
%TO.P,R6,2*%
%TO.N,GND*%
X110413748Y-116002500D03*
%TO.P,R6,1*%
%TO.N,Net-(J11-Pin_1)*%
X110413748Y-117827500D03*
%TD*%
%TO.P,R3,2*%
%TO.N,OUTL*%
X123513748Y-118842500D03*
%TO.P,R3,1*%
%TO.N,Net-(U2-OUTL)*%
X123513748Y-120667500D03*
%TD*%
D25*
%TO.P,R16,2*%
%TO.N,GND*%
X107951248Y-161780000D03*
%TO.P,R16,1*%
%TO.N,Net-(J18-Pin_1)*%
X109776248Y-161780000D03*
%TD*%
D26*
%TO.P,U1,3,VI*%
%TO.N,5V*%
X126515288Y-148689843D03*
D27*
%TO.P,U1,2,VO*%
%TO.N,3V3A*%
X120215288Y-150989843D03*
D26*
X126515288Y-150989843D03*
%TO.P,U1,1,GND*%
%TO.N,GND*%
X126515288Y-153289843D03*
%TD*%
D13*
%TO.P,C5,2*%
%TO.N,Net-(U2-VCOM{slash}DEMP)*%
X127151248Y-113155000D03*
%TO.P,C5,1*%
%TO.N,AGND*%
X130276248Y-113155000D03*
%TD*%
D12*
%TO.P,T1,1,AA*%
%TO.N,SPDIF1_IN*%
X63458748Y-137065000D03*
%TO.P,T1,2,AB*%
%TO.N,SPDIF1_GND*%
X63458748Y-142145000D03*
%TO.P,T1,3,SA*%
%TO.N,AGND*%
X73618748Y-142145000D03*
%TO.P,T1,4,SB*%
%TO.N,SPDIF1*%
X73618748Y-137065000D03*
%TD*%
D28*
%TO.P,D1,2,A*%
%TO.N,3V3A*%
X142513748Y-154510000D03*
%TO.P,D1,1,K*%
%TO.N,Net-(D1-K)*%
X142513748Y-152460000D03*
%TD*%
D29*
%TO.P,C29,1*%
%TO.N,AGND*%
X100176248Y-161805000D03*
%TO.P,C29,2*%
%TO.N,Net-(C29-Pad2)*%
X102251248Y-161805000D03*
%TD*%
D30*
%TO.P,R1,2*%
%TO.N,Net-(D1-K)*%
X142778748Y-150414167D03*
%TO.P,R1,1*%
%TO.N,GND*%
X142778748Y-148589167D03*
%TD*%
D31*
%TO.P,R8,1*%
%TO.N,AGND*%
X57038748Y-134255000D03*
%TO.P,R8,2*%
%TO.N,SPDIF1*%
X58863748Y-134255000D03*
%TD*%
D16*
%TO.P,R9,1*%
%TO.N,Net-(U3-RMCK)*%
X80723748Y-137080000D03*
%TO.P,R9,2*%
%TO.N,I2S_SCLK*%
X80723748Y-135255000D03*
%TD*%
D32*
%TO.P,J1,4,Pin_4*%
%TO.N,OUTR*%
X90213748Y-113355000D03*
%TO.P,J1,3,Pin_3*%
%TO.N,AGND_OUT*%
X88213748Y-113355000D03*
%TO.P,J1,2,Pin_2*%
%TO.N,OUTL*%
X86213748Y-113355000D03*
D33*
%TO.P,J1,1,Pin_1*%
%TO.N,AGND_OUT*%
X84213748Y-113355000D03*
%TD*%
D34*
%TO.P,U2,28,DVDD*%
%TO.N,3V3*%
X114288748Y-125055000D03*
%TO.P,U2,27,DGND*%
%TO.N,GND*%
X114288748Y-124405000D03*
%TO.P,U2,26,LDOO*%
%TO.N,Net-(U2-LDOO)*%
X114288748Y-123755000D03*
%TO.P,U2,25,XSMT*%
%TO.N,unconnected-(U2-XSMT-Pad25)*%
X114288748Y-123105000D03*
%TO.P,U2,24,ADR1/MISO/FMT*%
%TO.N,Net-(J12-Pin_1)*%
X114288748Y-122455000D03*
%TO.P,U2,23,LRCK*%
%TO.N,I2S_LRCLK*%
X114288748Y-121805000D03*
%TO.P,U2,22,DIN*%
%TO.N,I2S_DATA*%
X114288748Y-121155000D03*
%TO.P,U2,21,BCK*%
%TO.N,I2S_BCLK*%
X114288748Y-120505000D03*
%TO.P,U2,20,SCK*%
%TO.N,I2S_SCLK*%
X114288748Y-119855000D03*
%TO.P,U2,19,GPIO6/FLT*%
%TO.N,unconnected-(U2-GPIO6{slash}FLT-Pad19)*%
X114288748Y-119205000D03*
%TO.P,U2,18,MODE2/MS*%
%TO.N,3V3*%
X114288748Y-118555000D03*
%TO.P,U2,17,MODE1*%
%TO.N,GND*%
X114288748Y-117905000D03*
%TO.P,U2,16,ADR2/GPIO2/DOUT*%
%TO.N,Net-(J11-Pin_1)*%
X114288748Y-117255000D03*
%TO.P,U2,15,GPIO3/AGNS*%
%TO.N,unconnected-(U2-GPIO3{slash}AGNS-Pad15)*%
X114288748Y-116605000D03*
%TO.P,U2,14,GPIO4/MAST*%
%TO.N,unconnected-(U2-GPIO4{slash}MAST-Pad14)*%
X120013748Y-116605000D03*
%TO.P,U2,13,GPIO5/ATT0*%
%TO.N,unconnected-(U2-GPIO5{slash}ATT0-Pad13)*%
X120013748Y-117255000D03*
%TO.P,U2,12,SCL/MC/ATT1*%
%TO.N,SCL*%
X120013748Y-117905000D03*
%TO.P,U2,11,SDA/MOSI/ATT2*%
%TO.N,SDA*%
X120013748Y-118555000D03*
%TO.P,U2,10,VCOM/DEMP*%
%TO.N,Net-(U2-VCOM{slash}DEMP)*%
X120013748Y-119205000D03*
%TO.P,U2,9,AGND*%
%TO.N,AGND*%
X120013748Y-119855000D03*
%TO.P,U2,8,AVDD*%
%TO.N,3V3A*%
X120013748Y-120505000D03*
%TO.P,U2,7,OUTR*%
%TO.N,Net-(U2-OUTR)*%
X120013748Y-121155000D03*
%TO.P,U2,6,OUTL*%
%TO.N,Net-(U2-OUTL)*%
X120013748Y-121805000D03*
%TO.P,U2,5,VNEG*%
%TO.N,Net-(U2-VNEG)*%
X120013748Y-122455000D03*
%TO.P,U2,4,CAPM*%
%TO.N,Net-(U2-CAPM)*%
X120013748Y-123105000D03*
%TO.P,U2,3,CPGND*%
%TO.N,AGND*%
X120013748Y-123755000D03*
%TO.P,U2,2,CAPP*%
%TO.N,Net-(U2-CAPP)*%
X120013748Y-124405000D03*
%TO.P,U2,1,CPVDD*%
%TO.N,3V3A*%
X120013748Y-125055000D03*
%TD*%
D16*
%TO.P,R13,1*%
%TO.N,Net-(U3-SDOUT)*%
X93763748Y-142755000D03*
%TO.P,R13,2*%
%TO.N,3V3*%
X93763748Y-140930000D03*
%TD*%
%TO.P,R12,1*%
%TO.N,Net-(U3-OLRCK)*%
X85923748Y-137080000D03*
%TO.P,R12,2*%
%TO.N,I2S_LRCLK*%
X85923748Y-135255000D03*
%TD*%
D10*
%TO.P,J3,2,Pin_2*%
%TO.N,AGND_OUT*%
X74513748Y-119455000D03*
D11*
%TO.P,J3,1,Pin_1*%
%TO.N,AGND*%
X74513748Y-121995000D03*
%TD*%
D16*
%TO.P,R5,1*%
%TO.N,RESET*%
X61313748Y-115767500D03*
%TO.P,R5,2*%
%TO.N,GND*%
X61313748Y-113942500D03*
%TD*%
D35*
%TO.P,J16,1,Pin_1*%
%TO.N,SPDIF1_IN*%
X56013748Y-141255000D03*
D36*
%TO.P,J16,2,Pin_2*%
%TO.N,SPDIF1_GND*%
X56013748Y-138755000D03*
%TD*%
D37*
%TO.P,C11,2*%
%TO.N,Net-(U2-CAPM)*%
X123533748Y-123318748D03*
%TO.P,C11,1*%
%TO.N,Net-(U2-CAPP)*%
X123533748Y-125218748D03*
%TD*%
D10*
%TO.P,J8,2,Pin_2*%
%TO.N,GND*%
X136513748Y-134215000D03*
D11*
%TO.P,J8,1,Pin_1*%
%TO.N,AGND*%
X136513748Y-136755000D03*
%TD*%
D37*
%TO.P,C16,2*%
%TO.N,3V3*%
X114333748Y-128331248D03*
%TO.P,C16,1*%
%TO.N,GND*%
X114333748Y-130231248D03*
%TD*%
D31*
%TO.P,R18,1*%
%TO.N,GND*%
X132013748Y-160355000D03*
%TO.P,R18,2*%
%TO.N,Net-(D3-K)*%
X133838748Y-160355000D03*
%TD*%
D38*
%TO.P,C12,2*%
%TO.N,3V3A*%
X123113748Y-115755000D03*
%TO.P,C12,1*%
%TO.N,AGND*%
X125013748Y-115755000D03*
%TD*%
D10*
%TO.P,J17,2,Pin_2*%
%TO.N,GND*%
X88576248Y-154165000D03*
D11*
%TO.P,J17,1,Pin_1*%
%TO.N,AGND*%
X88576248Y-156705000D03*
%TD*%
D37*
%TO.P,C9,2*%
%TO.N,Net-(U2-VNEG)*%
X126633748Y-123368748D03*
%TO.P,C9,1*%
%TO.N,AGND*%
X126633748Y-125268748D03*
%TD*%
D10*
%TO.P,J18,2,Pin_2*%
%TO.N,3V3*%
X111553748Y-158880000D03*
D11*
%TO.P,J18,1,Pin_1*%
%TO.N,Net-(J18-Pin_1)*%
X109013748Y-158880000D03*
%TD*%
D25*
%TO.P,R14,2*%
%TO.N,GND*%
X107951248Y-153155000D03*
%TO.P,R14,1*%
%TO.N,Net-(J15-Pin_1)*%
X109776248Y-153155000D03*
%TD*%
D16*
%TO.P,R10,1*%
%TO.N,Net-(U3-OSCLK)*%
X82513748Y-137080000D03*
%TO.P,R10,2*%
%TO.N,I2S_BCLK*%
X82513748Y-135255000D03*
%TD*%
D31*
%TO.P,R19,1*%
%TO.N,GND*%
X132013748Y-163855000D03*
%TO.P,R19,2*%
%TO.N,Net-(D4-K)*%
X133838748Y-163855000D03*
%TD*%
D19*
%TO.P,C30,1*%
%TO.N,3V3A*%
X94951248Y-161905000D03*
%TO.P,C30,2*%
%TO.N,AGND*%
X98076248Y-161905000D03*
%TD*%
D39*
%TO.P,J7,2,Pin_2*%
%TO.N,SDA*%
X55463748Y-125755000D03*
D40*
%TO.P,J7,1,Pin_1*%
%TO.N,SCL*%
X55463748Y-127755000D03*
%TD*%
D41*
%TO.P,C24,1*%
%TO.N,GND*%
X101495800Y-145368110D03*
%TO.P,C24,2*%
%TO.N,3V3*%
X101495800Y-147268110D03*
%TD*%
%TO.P,C23,1*%
%TO.N,GND*%
X99246248Y-145355000D03*
%TO.P,C23,2*%
%TO.N,3V3*%
X99246248Y-147255000D03*
%TD*%
D29*
%TO.P,C28,1*%
%TO.N,AGND*%
X100176248Y-159605000D03*
%TO.P,C28,2*%
%TO.N,Net-(U3-FILT)*%
X102251248Y-159605000D03*
%TD*%
D41*
%TO.P,C3,2*%
%TO.N,OUTL*%
X125513748Y-120655000D03*
%TO.P,C3,1*%
%TO.N,AGND*%
X125513748Y-118755000D03*
%TD*%
D10*
%TO.P,J15,2,Pin_2*%
%TO.N,3V3*%
X111553748Y-150255000D03*
D11*
%TO.P,J15,1,Pin_1*%
%TO.N,Net-(J15-Pin_1)*%
X109013748Y-150255000D03*
%TD*%
D30*
%TO.P,R17,1*%
%TO.N,Net-(U3-FILT)*%
X104013748Y-160192500D03*
%TO.P,R17,2*%
%TO.N,Net-(C29-Pad2)*%
X104013748Y-162017500D03*
%TD*%
D29*
%TO.P,C25,2*%
%TO.N,Net-(U3-RXN)*%
X89813748Y-161230000D03*
%TO.P,C25,1*%
%TO.N,AGND*%
X87738748Y-161230000D03*
%TD*%
D16*
%TO.P,R11,1*%
%TO.N,Net-(U3-SDOUT)*%
X84223748Y-137080000D03*
%TO.P,R11,2*%
%TO.N,I2S_DATA*%
X84223748Y-135255000D03*
%TD*%
D13*
%TO.P,C6,2*%
%TO.N,3V3A*%
X127151248Y-115755000D03*
%TO.P,C6,1*%
%TO.N,AGND*%
X130276248Y-115755000D03*
%TD*%
D38*
%TO.P,C27,1*%
%TO.N,AGND*%
X98263748Y-159605000D03*
%TO.P,C27,2*%
%TO.N,3V3A*%
X96363748Y-159605000D03*
%TD*%
D14*
%TO.P,D4,1,K*%
%TO.N,Net-(D4-K)*%
X135901248Y-163855000D03*
%TO.P,D4,2,A*%
%TO.N,GPO1*%
X137951248Y-163855000D03*
%TD*%
D42*
%TO.P,C17,2*%
%TO.N,Net-(U2-LDOO)*%
X110826248Y-128655000D03*
%TO.P,C17,1*%
%TO.N,GND*%
X108926248Y-128655000D03*
%TD*%
D10*
%TO.P,J12,2,Pin_2*%
%TO.N,3V3*%
X105988748Y-134870000D03*
D11*
%TO.P,J12,1,Pin_1*%
%TO.N,Net-(J12-Pin_1)*%
X105988748Y-132330000D03*
%TD*%
%TO.P,J9,1,Pin_1*%
%TO.N,AGND*%
X120553748Y-139755000D03*
D10*
%TO.P,J9,2,Pin_2*%
%TO.N,GND*%
X118013748Y-139755000D03*
%TD*%
D17*
%TO.P,C8,1*%
%TO.N,3V3*%
X135013748Y-144796189D03*
D18*
%TO.P,C8,2*%
%TO.N,GND*%
X135013748Y-142296189D03*
%TD*%
D43*
%TO.P,D2,2,A*%
%TO.N,3V3*%
X142513748Y-140755000D03*
%TO.P,D2,1,K*%
%TO.N,Net-(D2-K)*%
X142513748Y-142805000D03*
%TD*%
D35*
%TO.P,J20,1,Pin_1*%
%TO.N,SPDIF2_IN*%
X55988748Y-156005000D03*
D36*
%TO.P,J20,2,Pin_2*%
%TO.N,SPDIF2_GND*%
X55988748Y-153505000D03*
%TD*%
D31*
%TO.P,R15,1*%
%TO.N,AGND*%
X57101248Y-149170000D03*
%TO.P,R15,2*%
%TO.N,SPDIF2*%
X58926248Y-149170000D03*
%TD*%
D33*
%TO.P,J22,1,Pin_1*%
%TO.N,GND*%
X124913748Y-161705000D03*
D32*
%TO.P,J22,2,Pin_2*%
%TO.N,GPO1*%
X126913748Y-161705000D03*
%TD*%
D33*
%TO.P,J10,1,Pin_1*%
%TO.N,GND*%
X65513748Y-113255000D03*
D32*
%TO.P,J10,2,Pin_2*%
%TO.N,RESET*%
X67513748Y-113255000D03*
%TD*%
D17*
%TO.P,C1,1*%
%TO.N,5V*%
X129513748Y-137755000D03*
D18*
%TO.P,C1,2*%
%TO.N,GND*%
X129513748Y-135255000D03*
%TD*%
D37*
%TO.P,C10,2*%
%TO.N,3V3A*%
X125233748Y-128018748D03*
%TO.P,C10,1*%
%TO.N,GND*%
X125233748Y-129918748D03*
%TD*%
D29*
%TO.P,C26,1*%
%TO.N,SPDIF2*%
X72176248Y-148555000D03*
%TO.P,C26,2*%
%TO.N,Net-(U3-RXP1)*%
X74251248Y-148555000D03*
%TD*%
D15*
%TO.P,C15,2*%
%TO.N,GND*%
X116833748Y-131581248D03*
%TO.P,C15,1*%
%TO.N,3V3*%
X116833748Y-128456248D03*
%TD*%
D44*
%TO.P,X1,1,Vctrl*%
%TO.N,3V3*%
X99246248Y-137405000D03*
%TO.P,X1,2,GND*%
%TO.N,GND*%
X96706248Y-137405000D03*
%TO.P,X1,3,OUT*%
%TO.N,OMCK*%
X96706248Y-139605000D03*
%TO.P,X1,4,V+*%
%TO.N,3V3*%
X99246248Y-139605000D03*
%TD*%
D38*
%TO.P,C19,1*%
%TO.N,3V3*%
X100026248Y-134905000D03*
%TO.P,C19,2*%
%TO.N,GND*%
X98126248Y-134905000D03*
%TD*%
D30*
%TO.P,R4,2*%
%TO.N,OUTR*%
X130013748Y-120580000D03*
%TO.P,R4,1*%
%TO.N,Net-(U2-OUTR)*%
X130013748Y-118755000D03*
%TD*%
D11*
%TO.P,J23,1,Pin_1*%
%TO.N,AGND*%
X66540000Y-161160000D03*
D10*
%TO.P,J23,2,Pin_2*%
%TO.N,SPDIF2_GND*%
X64000000Y-161160000D03*
%TD*%
D11*
%TO.P,J19,1,Pin_1*%
%TO.N,AGND*%
X66565000Y-146105000D03*
D10*
%TO.P,J19,2,Pin_2*%
%TO.N,SPDIF1_GND*%
X64025000Y-146105000D03*
%TD*%
D30*
%TO.P,R7,2*%
%TO.N,GND*%
X108888748Y-133095000D03*
%TO.P,R7,1*%
%TO.N,Net-(J12-Pin_1)*%
X108888748Y-131270000D03*
%TD*%
D32*
%TO.P,J2,3,Pin_3*%
%TO.N,OUTR*%
X100313748Y-113355000D03*
%TO.P,J2,2,Pin_2*%
%TO.N,AGND_OUT*%
X98313748Y-113355000D03*
D33*
%TO.P,J2,1,Pin_1*%
%TO.N,OUTL*%
X96313748Y-113355000D03*
%TD*%
D39*
%TO.P,J5,2,Pin_2*%
%TO.N,SDA*%
X62963748Y-125755000D03*
D40*
%TO.P,J5,1,Pin_1*%
%TO.N,SCL*%
X62963748Y-127755000D03*
%TD*%
D33*
%TO.P,J21,1,Pin_1*%
%TO.N,GND*%
X117013748Y-161755000D03*
D32*
%TO.P,J21,2,Pin_2*%
%TO.N,GPO0*%
X119013748Y-161755000D03*
%TD*%
D37*
%TO.P,C4,2*%
%TO.N,OUTR*%
X132013748Y-118767500D03*
%TO.P,C4,1*%
%TO.N,AGND*%
X132013748Y-120667500D03*
%TD*%
D29*
%TO.P,C20,1*%
%TO.N,SPDIF1*%
X72301248Y-133605000D03*
%TO.P,C20,2*%
%TO.N,Net-(U3-RXP0)*%
X74376248Y-133605000D03*
%TD*%
D45*
%TO.N,SDA*%
X102513748Y-148755000D03*
%TO.N,SCL*%
X103513748Y-148755000D03*
%TO.N,OMCK*%
X103013748Y-140255000D03*
X98013748Y-141755000D03*
%TO.N,AGND*%
X100013748Y-158255000D03*
X102013748Y-157255000D03*
%TO.N,GND*%
X104013748Y-157255000D03*
%TO.N,3V3*%
X111513748Y-130195000D03*
%TO.N,GND*%
X113013748Y-124755000D03*
%TO.N,Net-(J11-Pin_1)*%
X111513748Y-116755000D03*
%TO.N,SDA*%
X73513748Y-125755000D03*
X67013748Y-125755000D03*
%TO.N,SCL*%
X71013748Y-127755000D03*
X68013748Y-127755000D03*
%TO.N,GND*%
X115513748Y-117755000D03*
X110013748Y-114755000D03*
D46*
%TO.N,3V3A*%
X93513748Y-163755000D03*
X120013748Y-129255000D03*
X115013748Y-149255000D03*
D45*
%TO.N,GND*%
X62013748Y-112755000D03*
%TO.N,RESET*%
X95013748Y-152755000D03*
X97513748Y-154817610D03*
%TO.N,GPO1*%
X101014297Y-151255937D03*
X103513748Y-153755000D03*
%TO.N,GPO0*%
X112513748Y-152255000D03*
X107013748Y-150755000D03*
%TO.N,GND*%
X131513748Y-164755000D03*
X131513748Y-159255000D03*
X141513748Y-147755000D03*
D46*
X118513748Y-154755000D03*
X129513748Y-153755000D03*
X122013748Y-144255000D03*
%TO.N,5V*%
X127513748Y-143255000D03*
%TO.N,3V3A*%
X129513748Y-151255000D03*
D45*
%TO.N,I2S_DATA*%
X83013748Y-140755000D03*
X85368748Y-134110000D03*
%TO.N,I2S_LRCLK*%
X82013748Y-139255000D03*
X83513748Y-136255000D03*
%TO.N,I2S_BCLK*%
X81013748Y-140255000D03*
X81513748Y-136255000D03*
%TO.N,AGND*%
X94513748Y-155755000D03*
%TO.N,Net-(U3-OLRCK)*%
X87013748Y-139255000D03*
X87013748Y-141255000D03*
%TO.N,GND*%
X99513748Y-148755000D03*
X94513748Y-137255000D03*
X105013748Y-141255000D03*
X95013748Y-144255000D03*
X100513748Y-144555000D03*
X110013748Y-134755000D03*
X121013748Y-131755000D03*
X118513748Y-132255000D03*
X107013748Y-124755000D03*
%TO.N,OUTL*%
X127013748Y-121255000D03*
%TO.N,OUTR*%
X132013748Y-117255000D03*
%TO.N,AGND*%
X127513748Y-118255000D03*
X118513748Y-123755000D03*
X118513748Y-119755000D03*
X126013748Y-116755000D03*
X131513748Y-112255000D03*
X132566781Y-121808033D03*
X127513748Y-126255000D03*
%TO.N,GND*%
X108013748Y-152255000D03*
X107013748Y-162755000D03*
%TO.N,AGND*%
X56013748Y-148255000D03*
X55513748Y-133255000D03*
%TD*%
D47*
%TO.N,GND*%
X100513748Y-145355000D02*
X100513748Y-144555000D01*
%TO.N,SPDIF2_IN*%
X55988748Y-156005000D02*
X54113748Y-154130000D01*
X54113748Y-154130000D02*
X54113748Y-152655000D01*
X54113748Y-152655000D02*
X55053748Y-151715000D01*
X55053748Y-151715000D02*
X63433748Y-151715000D01*
%TO.N,SPDIF1_IN*%
X56013748Y-141255000D02*
X54213748Y-139455000D01*
X54213748Y-139455000D02*
X54213748Y-138155000D01*
X54213748Y-138155000D02*
X55303748Y-137065000D01*
X55303748Y-137065000D02*
X63458748Y-137065000D01*
%TO.N,OUTL*%
X73488748Y-112755000D02*
X74988748Y-111255000D01*
X74988748Y-111255000D02*
X84113748Y-111255000D01*
X84113748Y-111255000D02*
X86213748Y-113355000D01*
%TO.N,OUTR*%
X90213748Y-113355000D02*
X88988748Y-114580000D01*
X88988748Y-114580000D02*
X80393748Y-114580000D01*
X80393748Y-114580000D02*
X78568748Y-112755000D01*
X100313748Y-113355000D02*
X99088748Y-114580000D01*
X99088748Y-114580000D02*
X91438748Y-114580000D01*
X91438748Y-114580000D02*
X90213748Y-113355000D01*
%TO.N,OUTL*%
X86213748Y-113355000D02*
X87438748Y-112130000D01*
X87438748Y-112130000D02*
X95088748Y-112130000D01*
X95088748Y-112130000D02*
X96313748Y-113355000D01*
%TO.N,SDA*%
X102537050Y-150318110D02*
X102537050Y-148778302D01*
X102537050Y-148778302D02*
X102513748Y-148755000D01*
%TO.N,GPO0*%
X100587050Y-149723134D02*
X100587050Y-150318110D01*
X102155184Y-148155000D02*
X100587050Y-149723134D01*
X104413748Y-148155000D02*
X102155184Y-148155000D01*
X107013748Y-150755000D02*
X104413748Y-148155000D01*
%TO.N,SCL*%
X103187050Y-150318110D02*
X103187050Y-149081698D01*
X103187050Y-149081698D02*
X103513748Y-148755000D01*
%TO.N,Net-(J15-Pin_1)*%
X109013748Y-150255000D02*
X107913748Y-151355000D01*
X107913748Y-151355000D02*
X104873940Y-151355000D01*
X104873940Y-151355000D02*
X103837050Y-150318110D01*
%TO.N,3V3*%
X111553748Y-150255000D02*
X106168328Y-144869580D01*
X106168328Y-144869580D02*
X102570800Y-144869580D01*
%TO.N,OMCK*%
X110013748Y-142795000D02*
X107473748Y-140255000D01*
X107473748Y-140255000D02*
X103013748Y-140255000D01*
X98013748Y-140912500D02*
X98013748Y-141755000D01*
X98013748Y-141755000D02*
X98013748Y-143255000D01*
D48*
%TO.N,Net-(U3-FILT)*%
X102251248Y-159573261D02*
X102251248Y-159605000D01*
X99937050Y-157259063D02*
X102251248Y-159573261D01*
%TO.N,AGND*%
X99287050Y-158255000D02*
X100013748Y-158255000D01*
%TO.N,Net-(U3-FILT)*%
X99937050Y-156018110D02*
X99937050Y-157259063D01*
%TO.N,3V3A*%
X98637050Y-157331698D02*
X98637050Y-156018110D01*
X96363748Y-159605000D02*
X98637050Y-157331698D01*
D47*
%TO.N,AGND*%
X102537050Y-156018110D02*
X102537050Y-156731698D01*
X102537050Y-156731698D02*
X102013748Y-157255000D01*
X101887050Y-156018110D02*
X102537050Y-156018110D01*
X101237050Y-156018110D02*
X101887050Y-156018110D01*
X103187050Y-156018110D02*
X102537050Y-156018110D01*
%TO.N,GND*%
X103837050Y-156018110D02*
X103837050Y-157078302D01*
X103837050Y-157078302D02*
X104013748Y-157255000D01*
%TO.N,3V3A*%
X122013748Y-119242500D02*
X120751248Y-120505000D01*
X123113748Y-115755000D02*
X122013748Y-116855000D01*
%TO.N,Net-(U2-VCOM{slash}DEMP)*%
X121513748Y-115781470D02*
X124140218Y-113155000D01*
X124140218Y-113155000D02*
X127151248Y-113155000D01*
%TO.N,3V3A*%
X122013748Y-116855000D02*
X122013748Y-119242500D01*
X120751248Y-120505000D02*
X120013748Y-120505000D01*
%TO.N,Net-(U2-VCOM{slash}DEMP)*%
X120013748Y-119205000D02*
X120751248Y-119205000D01*
X120751248Y-119205000D02*
X121513748Y-118442500D01*
X121513748Y-118442500D02*
X121513748Y-115781470D01*
%TO.N,3V3A*%
X120013748Y-120505000D02*
X119276248Y-120505000D01*
X119276248Y-120505000D02*
X117913748Y-121867500D01*
X117913748Y-121867500D02*
X117913748Y-124155000D01*
X117913748Y-124155000D02*
X118813748Y-125055000D01*
X118813748Y-125055000D02*
X120013748Y-125055000D01*
%TO.N,3V3*%
X114333748Y-128331248D02*
X113377500Y-128331248D01*
X113377500Y-128331248D02*
X111513748Y-130195000D01*
%TO.N,GND*%
X114288748Y-124405000D02*
X113363748Y-124405000D01*
X113363748Y-124405000D02*
X113013748Y-124755000D01*
%TO.N,Net-(J12-Pin_1)*%
X114288748Y-122455000D02*
X113551248Y-122455000D01*
X109776248Y-130382500D02*
X108888748Y-131270000D01*
X113551248Y-122455000D02*
X113201248Y-122805000D01*
X113201248Y-122805000D02*
X112177718Y-122805000D01*
X109626248Y-125356470D02*
X109626248Y-127367500D01*
X112177718Y-122805000D02*
X109626248Y-125356470D01*
X109626248Y-127367500D02*
X109776248Y-127517500D01*
X109776248Y-127517500D02*
X109776248Y-130382500D01*
%TO.N,Net-(J11-Pin_1)*%
X114288748Y-117255000D02*
X112013748Y-117255000D01*
X112013748Y-117255000D02*
X111513748Y-116755000D01*
X110413748Y-117827500D02*
X108586248Y-117827500D01*
X108586248Y-117827500D02*
X107513748Y-116755000D01*
%TO.N,I2S_SCLK*%
X114288748Y-119855000D02*
X96517301Y-119855000D01*
X96517301Y-119855000D02*
X81117301Y-135255000D01*
X81117301Y-135255000D02*
X80723748Y-135255000D01*
%TO.N,SCL*%
X71013748Y-127406471D02*
X71013748Y-127755000D01*
X73265219Y-125155000D02*
X71013748Y-127406471D01*
X98013748Y-117755000D02*
X81013748Y-117755000D01*
X120013748Y-117905000D02*
X117669752Y-117905000D01*
%TO.N,SDA*%
X98513748Y-118255000D02*
X81513748Y-118255000D01*
%TO.N,SCL*%
X112019752Y-112255000D02*
X103513748Y-112255000D01*
X103513748Y-112255000D02*
X98013748Y-117755000D01*
%TO.N,SDA*%
X81513748Y-118255000D02*
X74013748Y-125755000D01*
%TO.N,SCL*%
X117669752Y-117905000D02*
X112019752Y-112255000D01*
%TO.N,SDA*%
X120013748Y-118555000D02*
X117612646Y-118555000D01*
%TO.N,SCL*%
X81013748Y-117755000D02*
X73613748Y-125155000D01*
%TO.N,SDA*%
X117612646Y-118555000D02*
X111812646Y-112755000D01*
%TO.N,SCL*%
X73613748Y-125155000D02*
X73265219Y-125155000D01*
%TO.N,SDA*%
X111812646Y-112755000D02*
X104013748Y-112755000D01*
X104013748Y-112755000D02*
X98513748Y-118255000D01*
X74013748Y-125755000D02*
X73513748Y-125755000D01*
%TO.N,RESET*%
X92713748Y-150455000D02*
X78713748Y-150455000D01*
X71862277Y-129755000D02*
X67513748Y-125406471D01*
X76013748Y-129755000D02*
X71862277Y-129755000D01*
X67513748Y-125406471D02*
X67513748Y-113255000D01*
X78713748Y-150455000D02*
X78513748Y-150255000D01*
X95013748Y-152755000D02*
X92713748Y-150455000D01*
X78513748Y-132255000D02*
X76013748Y-129755000D01*
X78513748Y-150255000D02*
X78513748Y-132255000D01*
%TO.N,SDA*%
X67013748Y-125755000D02*
X62963748Y-125755000D01*
%TO.N,SCL*%
X68013748Y-127755000D02*
X62963748Y-127755000D01*
%TO.N,3V3*%
X114288748Y-118555000D02*
X115026248Y-118555000D01*
X115012646Y-125055000D02*
X114288748Y-125055000D01*
X115026248Y-118555000D02*
X115376248Y-118905000D01*
X115376248Y-118905000D02*
X115376248Y-124691398D01*
X115376248Y-124691398D02*
X115012646Y-125055000D01*
X114288748Y-118555000D02*
X112459600Y-118555000D01*
X112459600Y-118555000D02*
X110744600Y-116840000D01*
X110744600Y-116840000D02*
X109793724Y-116840000D01*
X109793724Y-116840000D02*
X107513748Y-114560024D01*
X107513748Y-114560024D02*
X107513748Y-114215000D01*
%TO.N,GND*%
X114288748Y-117905000D02*
X115363748Y-117905000D01*
X115363748Y-117905000D02*
X115513748Y-117755000D01*
X110413748Y-116002500D02*
X110413748Y-115155000D01*
X110413748Y-115155000D02*
X110013748Y-114755000D01*
%TO.N,AGND*%
X132566781Y-121220533D02*
X132566781Y-121808033D01*
X132013748Y-120667500D02*
X132566781Y-121220533D01*
D49*
%TO.N,3V3A*%
X93513748Y-163755000D02*
X93513748Y-163342500D01*
X93513748Y-163342500D02*
X94951248Y-161905000D01*
X121784996Y-129255000D02*
X122833748Y-128206248D01*
X120013748Y-129255000D02*
X121784996Y-129255000D01*
X116979036Y-150382343D02*
X116141091Y-150382343D01*
X116141091Y-150382343D02*
X115013748Y-149255000D01*
D47*
%TO.N,RESET*%
X61313748Y-115767500D02*
X65001248Y-115767500D01*
X65001248Y-115767500D02*
X67513748Y-113255000D01*
%TO.N,GND*%
X61313748Y-113942500D02*
X61313748Y-113455000D01*
X61313748Y-113455000D02*
X62013748Y-112755000D01*
%TO.N,RESET*%
X99981526Y-154817610D02*
X97513748Y-154817610D01*
X100587050Y-156018110D02*
X100587050Y-155423134D01*
X100587050Y-155423134D02*
X99981526Y-154817610D01*
%TO.N,GPO1*%
X126913748Y-161705000D02*
X124363748Y-164255000D01*
X104838748Y-155080000D02*
X103513748Y-153755000D01*
X101014297Y-151255937D02*
X101237050Y-151033184D01*
X124363748Y-164255000D02*
X107013748Y-164255000D01*
X107013748Y-164255000D02*
X104838748Y-162080000D01*
X104838748Y-162080000D02*
X104838748Y-155080000D01*
X101237050Y-151033184D02*
X101237050Y-150318110D01*
%TO.N,GPO0*%
X119013748Y-161755000D02*
X119013748Y-158755000D01*
X119013748Y-158755000D02*
X112513748Y-152255000D01*
%TO.N,GPO1*%
X137951248Y-163855000D02*
X136337085Y-162240837D01*
X136337085Y-162240837D02*
X127449585Y-162240837D01*
X127449585Y-162240837D02*
X126913748Y-161705000D01*
%TO.N,GPO0*%
X137951248Y-160355000D02*
X136901248Y-161405000D01*
X136901248Y-161405000D02*
X130163748Y-161405000D01*
X129013748Y-160255000D02*
X120513748Y-160255000D01*
X120513748Y-160255000D02*
X119013748Y-161755000D01*
X130163748Y-161405000D02*
X129013748Y-160255000D01*
%TO.N,Net-(D4-K)*%
X133838748Y-163855000D02*
X135901248Y-163855000D01*
%TO.N,Net-(D3-K)*%
X133838748Y-160355000D02*
X135901248Y-160355000D01*
%TO.N,GND*%
X132013748Y-163855000D02*
X132013748Y-164255000D01*
X132013748Y-164255000D02*
X131513748Y-164755000D01*
X132013748Y-160355000D02*
X132013748Y-159755000D01*
X132013748Y-159755000D02*
X131513748Y-159255000D01*
%TO.N,3V3*%
X142513748Y-140755000D02*
X139054937Y-140755000D01*
X139054937Y-140755000D02*
X135013748Y-144796189D01*
%TO.N,3V3A*%
X142513748Y-154510000D02*
X136186369Y-154510000D01*
X136186369Y-154510000D02*
X135013748Y-153337379D01*
%TO.N,Net-(D1-K)*%
X142778748Y-150414167D02*
X142778748Y-152195000D01*
X142778748Y-152195000D02*
X142513748Y-152460000D01*
%TO.N,GND*%
X142778748Y-147255000D02*
X142778748Y-148589167D01*
X142778748Y-146675834D02*
X142778748Y-147255000D01*
X142778748Y-147255000D02*
X142013748Y-147255000D01*
X142013748Y-147255000D02*
X141513748Y-147755000D01*
%TO.N,Net-(D2-K)*%
X142513748Y-142805000D02*
X142513748Y-144585834D01*
X142513748Y-144585834D02*
X142778748Y-144850834D01*
D49*
%TO.N,GND*%
X116979036Y-153507343D02*
X117266091Y-153507343D01*
X117266091Y-153507343D02*
X118513748Y-154755000D01*
X126515288Y-153289843D02*
X129048591Y-153289843D01*
X129048591Y-153289843D02*
X129513748Y-153755000D01*
X123616536Y-145544843D02*
X123303591Y-145544843D01*
X123303591Y-145544843D02*
X122013748Y-144255000D01*
%TO.N,5V*%
X126741536Y-145544843D02*
X126741536Y-148463595D01*
X126741536Y-148463595D02*
X126515288Y-148689843D01*
X127513748Y-143255000D02*
X127513748Y-144772631D01*
X127513748Y-144772631D02*
X126741536Y-145544843D01*
%TO.N,3V3A*%
X120215288Y-150989843D02*
X117586536Y-150989843D01*
X117586536Y-150989843D02*
X116979036Y-150382343D01*
X126515288Y-150989843D02*
X120215288Y-150989843D01*
X129513748Y-151255000D02*
X126780445Y-151255000D01*
X126780445Y-151255000D02*
X126515288Y-150989843D01*
D47*
%TO.N,I2S_DATA*%
X88093748Y-149255000D02*
X88093748Y-145835000D01*
X88093748Y-145835000D02*
X83013748Y-140755000D01*
X98323748Y-121155000D02*
X85368748Y-134110000D01*
X85368748Y-134110000D02*
X84223748Y-135255000D01*
%TO.N,I2S_LRCLK*%
X85553748Y-149255000D02*
X82013748Y-145715000D01*
X82013748Y-145715000D02*
X82013748Y-139255000D01*
X83526248Y-136242500D02*
X84936248Y-136242500D01*
X83513748Y-136255000D02*
X83526248Y-136242500D01*
X84936248Y-136242500D02*
X85923748Y-135255000D01*
%TO.N,I2S_BCLK*%
X83013748Y-149255000D02*
X81013748Y-147255000D01*
X81013748Y-147255000D02*
X81013748Y-140255000D01*
X81513748Y-136255000D02*
X82513748Y-135255000D01*
%TO.N,I2S_SCLK*%
X80723748Y-135255000D02*
X79898748Y-136080000D01*
X79898748Y-136080000D02*
X79898748Y-148680000D01*
X79898748Y-148680000D02*
X80473748Y-149255000D01*
%TO.N,Net-(U3-RXP0)*%
X97337050Y-156018110D02*
X97337050Y-156613086D01*
X97032026Y-156918110D02*
X94828329Y-156918110D01*
X94828329Y-156918110D02*
X90665219Y-152755000D01*
X97337050Y-156613086D02*
X97032026Y-156918110D01*
X90665219Y-152755000D02*
X76790218Y-152755000D01*
X73313748Y-145955000D02*
X74468748Y-144800000D01*
X76790218Y-152755000D02*
X73313748Y-149278530D01*
X73313748Y-149278530D02*
X73313748Y-145955000D01*
X74468748Y-144800000D02*
X74468748Y-133697500D01*
X74468748Y-133697500D02*
X74376248Y-133605000D01*
%TO.N,Net-(U3-RXP1)*%
X96687050Y-156018110D02*
X96687050Y-155423134D01*
X96687050Y-155423134D02*
X93018916Y-151755000D01*
X93018916Y-151755000D02*
X77451248Y-151755000D01*
X77451248Y-151755000D02*
X74251248Y-148555000D01*
%TO.N,AGND*%
X73618748Y-142145000D02*
X70525000Y-142145000D01*
%TO.N,Net-(U3-RXN)*%
X96127242Y-158530000D02*
X92513748Y-158530000D01*
X97987050Y-156018110D02*
X97987050Y-156670192D01*
X92513748Y-158530000D02*
X89813748Y-161230000D01*
X97987050Y-156670192D02*
X96127242Y-158530000D01*
%TO.N,AGND*%
X70525000Y-142145000D02*
X66565000Y-146105000D01*
X88576248Y-156705000D02*
X88576248Y-160392500D01*
X88576248Y-160392500D02*
X87738748Y-161230000D01*
D48*
%TO.N,3V3A*%
X94951248Y-161905000D02*
X94951248Y-161017500D01*
X94951248Y-161017500D02*
X96363748Y-159605000D01*
%TO.N,Net-(C29-Pad2)*%
X102251248Y-161805000D02*
X103801248Y-161805000D01*
X103801248Y-161805000D02*
X104013748Y-162017500D01*
%TO.N,Net-(U3-FILT)*%
X102251248Y-159605000D02*
X103426248Y-159605000D01*
X103426248Y-159605000D02*
X104013748Y-160192500D01*
%TO.N,AGND*%
X100176248Y-159605000D02*
X100176248Y-161805000D01*
X98263748Y-159605000D02*
X98263748Y-161717500D01*
X98263748Y-161717500D02*
X98076248Y-161905000D01*
X99287050Y-158255000D02*
X99287050Y-158581698D01*
X99287050Y-158255000D02*
X99287050Y-158715802D01*
X99287050Y-156018110D02*
X99287050Y-158255000D01*
X99287050Y-158715802D02*
X100176248Y-159605000D01*
X99287050Y-158581698D02*
X98263748Y-159605000D01*
D47*
X95387050Y-156018110D02*
X94776858Y-156018110D01*
X94776858Y-156018110D02*
X94513748Y-155755000D01*
X96037050Y-156018110D02*
X95387050Y-156018110D01*
%TO.N,Net-(U3-RMCK)*%
X97987050Y-150318110D02*
X97987050Y-150913086D01*
X97987050Y-150913086D02*
X97682026Y-151218110D01*
X97682026Y-151218110D02*
X94861858Y-151218110D01*
X94861858Y-151218110D02*
X80723748Y-137080000D01*
%TO.N,Net-(U3-OSCLK)*%
X96037050Y-150318110D02*
X96037050Y-149429773D01*
X86962277Y-140355000D02*
X85788748Y-140355000D01*
X96037050Y-149429773D02*
X86962277Y-140355000D01*
X85788748Y-140355000D02*
X82513748Y-137080000D01*
%TO.N,Net-(U3-SDOUT)*%
X84223748Y-137567500D02*
X86511248Y-139855000D01*
X90863748Y-139855000D02*
X93763748Y-142755000D01*
X84223748Y-137080000D02*
X84223748Y-137567500D01*
X86511248Y-139855000D02*
X90863748Y-139855000D01*
%TO.N,Net-(U3-OLRCK)*%
X95387050Y-150318110D02*
X95387050Y-149628302D01*
X95387050Y-149628302D02*
X87013748Y-141255000D01*
X87013748Y-139255000D02*
X87013748Y-138170000D01*
X87013748Y-138170000D02*
X85923748Y-137080000D01*
%TO.N,Net-(U3-SDOUT)*%
X96687050Y-150318110D02*
X96687050Y-146776831D01*
X93763748Y-143853529D02*
X93763748Y-142755000D01*
X96687050Y-146776831D02*
X93763748Y-143853529D01*
%TO.N,3V3*%
X99937050Y-149326860D02*
X99937050Y-150318110D01*
X101495800Y-147268110D02*
X101495800Y-147768110D01*
X101495800Y-147768110D02*
X99937050Y-149326860D01*
%TO.N,GND*%
X99287050Y-150318110D02*
X99287050Y-148981698D01*
X99287050Y-148981698D02*
X99513748Y-148755000D01*
%TO.N,3V3*%
X99246248Y-147255000D02*
X98637050Y-147864198D01*
X98637050Y-147864198D02*
X98637050Y-150318110D01*
%TO.N,GND*%
X98126248Y-134905000D02*
X98126248Y-135985000D01*
X98126248Y-135985000D02*
X96706248Y-137405000D01*
%TO.N,3V3*%
X93763748Y-140930000D02*
X93763748Y-137156471D01*
X93763748Y-137156471D02*
X97090219Y-133830000D01*
X98951248Y-133830000D02*
X100026248Y-134905000D01*
X97090219Y-133830000D02*
X98951248Y-133830000D01*
X101483748Y-143205000D02*
X101483748Y-141842500D01*
X101483748Y-141842500D02*
X99246248Y-139605000D01*
X99308748Y-143205000D02*
X99308748Y-139667500D01*
X99308748Y-139667500D02*
X99246248Y-139605000D01*
%TO.N,OMCK*%
X96706248Y-139605000D02*
X98013748Y-140912500D01*
X98013748Y-143255000D02*
X97337050Y-143931698D01*
X97337050Y-143931698D02*
X97337050Y-150318110D01*
%TO.N,GND*%
X96706248Y-137405000D02*
X94663748Y-137405000D01*
X94663748Y-137405000D02*
X94513748Y-137255000D01*
X104608748Y-143205000D02*
X104608748Y-141660000D01*
X104608748Y-141660000D02*
X105013748Y-141255000D01*
X96183748Y-143205000D02*
X96063748Y-143205000D01*
X96063748Y-143205000D02*
X95013748Y-144255000D01*
X100513748Y-145355000D02*
X101482690Y-145355000D01*
X99246248Y-145355000D02*
X100513748Y-145355000D01*
X101482690Y-145355000D02*
X101495800Y-145368110D01*
%TO.N,3V3*%
X99308748Y-143205000D02*
X98171248Y-144342500D01*
X98171248Y-146180000D02*
X99246248Y-147255000D01*
X98171248Y-144342500D02*
X98171248Y-146180000D01*
X101483748Y-143205000D02*
X101483748Y-143782528D01*
X101483748Y-143782528D02*
X102570800Y-144869580D01*
X102570800Y-146193110D02*
X101495800Y-147268110D01*
X102570800Y-144869580D02*
X102570800Y-146193110D01*
X99246248Y-137405000D02*
X99246248Y-139605000D01*
X100026248Y-134905000D02*
X100026248Y-136625000D01*
X100026248Y-136625000D02*
X99246248Y-137405000D01*
X105988748Y-134870000D02*
X100061248Y-134870000D01*
X100061248Y-134870000D02*
X100026248Y-134905000D01*
%TO.N,Net-(J12-Pin_1)*%
X108888748Y-131270000D02*
X107048748Y-131270000D01*
X107048748Y-131270000D02*
X105988748Y-132330000D01*
%TO.N,GND*%
X108888748Y-133095000D02*
X108888748Y-133630000D01*
X108888748Y-133630000D02*
X110013748Y-134755000D01*
%TO.N,Net-(U2-LDOO)*%
X110638748Y-126255000D02*
X110638748Y-125355000D01*
X110638748Y-125355000D02*
X112238748Y-123755000D01*
X112238748Y-123755000D02*
X114288748Y-123755000D01*
%TO.N,3V3*%
X114333748Y-128331248D02*
X114333748Y-125100000D01*
X114333748Y-125100000D02*
X114288748Y-125055000D01*
X116833748Y-128456248D02*
X114458748Y-128456248D01*
X114458748Y-128456248D02*
X114333748Y-128331248D01*
%TO.N,3V3A*%
X122833748Y-128206248D02*
X122833748Y-127875000D01*
X122833748Y-127875000D02*
X120013748Y-125055000D01*
X122833748Y-128206248D02*
X125046248Y-128206248D01*
X125046248Y-128206248D02*
X125233748Y-128018748D01*
%TO.N,GND*%
X122833748Y-131331248D02*
X121437500Y-131331248D01*
X121437500Y-131331248D02*
X121013748Y-131755000D01*
X125233748Y-129918748D02*
X124246248Y-129918748D01*
X124246248Y-129918748D02*
X122833748Y-131331248D01*
X116833748Y-131581248D02*
X117839996Y-131581248D01*
X117839996Y-131581248D02*
X118513748Y-132255000D01*
X114333748Y-130231248D02*
X115483748Y-130231248D01*
X115483748Y-130231248D02*
X116833748Y-131581248D01*
X107513748Y-126255000D02*
X107513748Y-125255000D01*
X107513748Y-125255000D02*
X107013748Y-124755000D01*
X108926248Y-128655000D02*
X108926248Y-127667500D01*
X108926248Y-127667500D02*
X107513748Y-126255000D01*
%TO.N,Net-(U2-LDOO)*%
X110638748Y-126255000D02*
X110638748Y-128467500D01*
X110638748Y-128467500D02*
X110826248Y-128655000D01*
%TO.N,Net-(U2-OUTR)*%
X128913748Y-117655000D02*
X130013748Y-118755000D01*
X122513748Y-120349148D02*
X122513748Y-118524148D01*
X120013748Y-121155000D02*
X121707896Y-121155000D01*
X122513748Y-118524148D02*
X123382896Y-117655000D01*
X121707896Y-121155000D02*
X122513748Y-120349148D01*
X123382896Y-117655000D02*
X128913748Y-117655000D01*
%TO.N,AGND*%
X127013748Y-118755000D02*
X127513748Y-118255000D01*
X125513748Y-118755000D02*
X127013748Y-118755000D01*
%TO.N,OUTL*%
X125513748Y-120655000D02*
X126413748Y-120655000D01*
X126413748Y-120655000D02*
X127013748Y-121255000D01*
%TO.N,OUTR*%
X132013748Y-118767500D02*
X132013748Y-117255000D01*
%TO.N,OUTL*%
X123513748Y-118842500D02*
X123701248Y-118842500D01*
X123701248Y-118842500D02*
X125513748Y-120655000D01*
%TO.N,OUTR*%
X130013748Y-120580000D02*
X130201248Y-120580000D01*
X130201248Y-120580000D02*
X132013748Y-118767500D01*
%TO.N,Net-(U2-VNEG)*%
X120013748Y-122455000D02*
X125720000Y-122455000D01*
X125720000Y-122455000D02*
X126633748Y-123368748D01*
%TO.N,Net-(U2-OUTL)*%
X120013748Y-121805000D02*
X122376248Y-121805000D01*
X122376248Y-121805000D02*
X123513748Y-120667500D01*
%TO.N,AGND*%
X120013748Y-123755000D02*
X118513748Y-123755000D01*
X120013748Y-119855000D02*
X118613748Y-119855000D01*
X118613748Y-119855000D02*
X118513748Y-119755000D01*
X125013748Y-115755000D02*
X126013748Y-116755000D01*
%TO.N,3V3A*%
X127151248Y-115755000D02*
X126076248Y-114680000D01*
X126076248Y-114680000D02*
X124188748Y-114680000D01*
X124188748Y-114680000D02*
X123113748Y-115755000D01*
%TO.N,AGND*%
X130276248Y-113155000D02*
X130613748Y-113155000D01*
X130613748Y-113155000D02*
X131513748Y-112255000D01*
X130276248Y-115755000D02*
X130276248Y-113155000D01*
X126633748Y-125268748D02*
X126633748Y-125375000D01*
X126633748Y-125375000D02*
X127513748Y-126255000D01*
%TO.N,Net-(U2-CAPM)*%
X123533748Y-123318748D02*
X123320000Y-123105000D01*
X123320000Y-123105000D02*
X120013748Y-123105000D01*
%TO.N,Net-(U2-CAPP)*%
X123533748Y-125218748D02*
X122720000Y-124405000D01*
X122720000Y-124405000D02*
X120013748Y-124405000D01*
%TO.N,I2S_LRCLK*%
X85923748Y-135255000D02*
X99373748Y-121805000D01*
X99373748Y-121805000D02*
X114288748Y-121805000D01*
%TO.N,I2S_DATA*%
X114288748Y-121155000D02*
X98323748Y-121155000D01*
%TO.N,I2S_BCLK*%
X82513748Y-135255000D02*
X97263748Y-120505000D01*
X97263748Y-120505000D02*
X114288748Y-120505000D01*
%TO.N,3V3*%
X111553748Y-150255000D02*
X111553748Y-158880000D01*
%TO.N,GND*%
X107951248Y-153155000D02*
X107951248Y-152317500D01*
X107951248Y-152317500D02*
X108013748Y-152255000D01*
%TO.N,Net-(J15-Pin_1)*%
X109013748Y-150255000D02*
X109013748Y-152392500D01*
X109013748Y-152392500D02*
X109776248Y-153155000D01*
%TO.N,Net-(J18-Pin_1)*%
X109013748Y-158880000D02*
X109013748Y-157789832D01*
X109013748Y-157789832D02*
X102478916Y-151255000D01*
X102013748Y-151255000D02*
X101887050Y-151128302D01*
X102478916Y-151255000D02*
X102013748Y-151255000D01*
X101887050Y-151128302D02*
X101887050Y-150318110D01*
%TO.N,GND*%
X107951248Y-161780000D02*
X107951248Y-161817500D01*
X107951248Y-161817500D02*
X107013748Y-162755000D01*
%TO.N,Net-(J18-Pin_1)*%
X109013748Y-158880000D02*
X109013748Y-161017500D01*
X109013748Y-161017500D02*
X109776248Y-161780000D01*
%TO.N,SPDIF2_GND*%
X63433748Y-156795000D02*
X64000000Y-157361252D01*
X64000000Y-157361252D02*
X64000000Y-161160000D01*
X55988748Y-153505000D02*
X60143748Y-153505000D01*
X60143748Y-153505000D02*
X63433748Y-156795000D01*
%TO.N,AGND*%
X57101248Y-149170000D02*
X56928748Y-149170000D01*
X56928748Y-149170000D02*
X56013748Y-148255000D01*
%TO.N,SPDIF2*%
X72176248Y-148555000D02*
X59541248Y-148555000D01*
X59541248Y-148555000D02*
X58926248Y-149170000D01*
X72176248Y-148555000D02*
X72176248Y-150297500D01*
X72176248Y-150297500D02*
X73593748Y-151715000D01*
%TO.N,SPDIF1_GND*%
X63458748Y-142145000D02*
X59403748Y-142145000D01*
X59403748Y-142145000D02*
X56013748Y-138755000D01*
X63458748Y-142145000D02*
X64025000Y-142711252D01*
X64025000Y-142711252D02*
X64025000Y-146105000D01*
%TO.N,AGND*%
X57038748Y-134255000D02*
X56513748Y-134255000D01*
X56513748Y-134255000D02*
X55513748Y-133255000D01*
%TO.N,SPDIF1*%
X58863748Y-134255000D02*
X71651248Y-134255000D01*
X71651248Y-134255000D02*
X72301248Y-133605000D01*
X72301248Y-133605000D02*
X72301248Y-135747500D01*
X72301248Y-135747500D02*
X73618748Y-137065000D01*
%TO.N,SCL*%
X55463748Y-127755000D02*
X62963748Y-127755000D01*
%TO.N,SDA*%
X55463748Y-125755000D02*
X62963748Y-125755000D01*
%TD*%
M02*
