%TF.GenerationSoftware,KiCad,Pcbnew,7.0.8*%
%TF.CreationDate,2024-11-14T21:46:59-08:00*%
%TF.ProjectId,CS8416-PCB5122,43533834-3136-42d5-9043-42353132322e,rev?*%
%TF.SameCoordinates,Original*%
%TF.FileFunction,Paste,Top*%
%TF.FilePolarity,Positive*%
%FSLAX46Y46*%
G04 Gerber Fmt 4.6, Leading zero omitted, Abs format (unit mm)*
G04 Created by KiCad (PCBNEW 7.0.8) date 2024-11-14 21:46:59*
%MOMM*%
%LPD*%
G01*
G04 APERTURE LIST*
G04 Aperture macros list*
%AMRoundRect*
0 Rectangle with rounded corners*
0 $1 Rounding radius*
0 $2 $3 $4 $5 $6 $7 $8 $9 X,Y pos of 4 corners*
0 Add a 4 corners polygon primitive as box body*
4,1,4,$2,$3,$4,$5,$6,$7,$8,$9,$2,$3,0*
0 Add four circle primitives for the rounded corners*
1,1,$1+$1,$2,$3*
1,1,$1+$1,$4,$5*
1,1,$1+$1,$6,$7*
1,1,$1+$1,$8,$9*
0 Add four rect primitives between the rounded corners*
20,1,$1+$1,$2,$3,$4,$5,0*
20,1,$1+$1,$4,$5,$6,$7,0*
20,1,$1+$1,$6,$7,$8,$9,0*
20,1,$1+$1,$8,$9,$2,$3,0*%
G04 Aperture macros list end*
%ADD10RoundRect,0.250000X0.412500X0.650000X-0.412500X0.650000X-0.412500X-0.650000X0.412500X-0.650000X0*%
%ADD11RoundRect,0.250000X-0.325000X-0.450000X0.325000X-0.450000X0.325000X0.450000X-0.325000X0.450000X0*%
%ADD12RoundRect,0.250000X-0.650000X0.412500X-0.650000X-0.412500X0.650000X-0.412500X0.650000X0.412500X0*%
%ADD13RoundRect,0.237500X0.237500X-0.250000X0.237500X0.250000X-0.237500X0.250000X-0.237500X-0.250000X0*%
%ADD14RoundRect,0.250000X-0.412500X-0.650000X0.412500X-0.650000X0.412500X0.650000X-0.412500X0.650000X0*%
%ADD15RoundRect,0.250000X0.650000X-0.412500X0.650000X0.412500X-0.650000X0.412500X-0.650000X-0.412500X0*%
%ADD16R,0.400000X1.100000*%
%ADD17R,0.925500X0.720000*%
%ADD18RoundRect,0.237500X0.250000X0.237500X-0.250000X0.237500X-0.250000X-0.237500X0.250000X-0.237500X0*%
%ADD19R,2.000000X1.500000*%
%ADD20R,2.000000X3.800000*%
%ADD21RoundRect,0.250000X-0.450000X0.325000X-0.450000X-0.325000X0.450000X-0.325000X0.450000X0.325000X0*%
%ADD22RoundRect,0.250000X-0.337500X-0.475000X0.337500X-0.475000X0.337500X0.475000X-0.337500X0.475000X0*%
%ADD23RoundRect,0.237500X-0.237500X0.250000X-0.237500X-0.250000X0.237500X-0.250000X0.237500X0.250000X0*%
%ADD24RoundRect,0.237500X-0.250000X-0.237500X0.250000X-0.237500X0.250000X0.237500X-0.250000X0.237500X0*%
%ADD25RoundRect,0.100000X0.637500X0.100000X-0.637500X0.100000X-0.637500X-0.100000X0.637500X-0.100000X0*%
%ADD26RoundRect,0.250000X0.475000X-0.250000X0.475000X0.250000X-0.475000X0.250000X-0.475000X-0.250000X0*%
%ADD27RoundRect,0.250000X0.250000X0.475000X-0.250000X0.475000X-0.250000X-0.475000X0.250000X-0.475000X0*%
%ADD28RoundRect,0.250000X-0.475000X0.250000X-0.475000X-0.250000X0.475000X-0.250000X0.475000X0.250000X0*%
%ADD29RoundRect,0.250000X-0.250000X-0.475000X0.250000X-0.475000X0.250000X0.475000X-0.250000X0.475000X0*%
%ADD30RoundRect,0.250000X0.450000X-0.325000X0.450000X0.325000X-0.450000X0.325000X-0.450000X-0.325000X0*%
%ADD31R,1.400000X1.200000*%
G04 APERTURE END LIST*
D10*
%TO.C,C18*%
X107513748Y-126255000D03*
X110638748Y-126255000D03*
%TD*%
D11*
%TO.C,D3*%
X135901248Y-160355000D03*
X137951248Y-160355000D03*
%TD*%
D12*
%TO.C,C13*%
X122833748Y-131331248D03*
X122833748Y-128206248D03*
%TD*%
D13*
%TO.C,R2*%
X142778748Y-144850834D03*
X142778748Y-146675834D03*
%TD*%
D10*
%TO.C,C21*%
X104608748Y-143205000D03*
X101483748Y-143205000D03*
%TD*%
D14*
%TO.C,C22*%
X96183748Y-143205000D03*
X99308748Y-143205000D03*
%TD*%
D15*
%TO.C,C7*%
X116979036Y-150382343D03*
X116979036Y-153507343D03*
%TD*%
D14*
%TO.C,C2*%
X126741536Y-145544843D03*
X123616536Y-145544843D03*
%TD*%
D16*
%TO.C,U3*%
X95387050Y-156018110D03*
X96037050Y-156018110D03*
X96687050Y-156018110D03*
X97337050Y-156018110D03*
X97987050Y-156018110D03*
X98637050Y-156018110D03*
X99287050Y-156018110D03*
X99937050Y-156018110D03*
X100587050Y-156018110D03*
X101237050Y-156018110D03*
X101887050Y-156018110D03*
X102537050Y-156018110D03*
X103187050Y-156018110D03*
X103837050Y-156018110D03*
X103837050Y-150318110D03*
X103187050Y-150318110D03*
X102537050Y-150318110D03*
X101887050Y-150318110D03*
X101237050Y-150318110D03*
X100587050Y-150318110D03*
X99937050Y-150318110D03*
X99287050Y-150318110D03*
X98637050Y-150318110D03*
X97987050Y-150318110D03*
X97337050Y-150318110D03*
X96687050Y-150318110D03*
X96037050Y-150318110D03*
X95387050Y-150318110D03*
D17*
X97298300Y-153768110D03*
X98840800Y-153768110D03*
X100383300Y-153768110D03*
X101925800Y-153768110D03*
X97298300Y-152568110D03*
X98840800Y-152568110D03*
X100383300Y-152568110D03*
X101925800Y-152568110D03*
%TD*%
D13*
%TO.C,R6*%
X110413748Y-116002500D03*
X110413748Y-117827500D03*
%TD*%
%TO.C,R3*%
X123513748Y-118842500D03*
X123513748Y-120667500D03*
%TD*%
D18*
%TO.C,R16*%
X107951248Y-161780000D03*
X109776248Y-161780000D03*
%TD*%
D19*
%TO.C,U1*%
X126515288Y-148689843D03*
D20*
X120215288Y-150989843D03*
D19*
X126515288Y-150989843D03*
X126515288Y-153289843D03*
%TD*%
D10*
%TO.C,C5*%
X127151248Y-113155000D03*
X130276248Y-113155000D03*
%TD*%
D21*
%TO.C,D1*%
X142513748Y-154510000D03*
X142513748Y-152460000D03*
%TD*%
D22*
%TO.C,C29*%
X100176248Y-161805000D03*
X102251248Y-161805000D03*
%TD*%
D23*
%TO.C,R1*%
X142778748Y-150414167D03*
X142778748Y-148589167D03*
%TD*%
D24*
%TO.C,R8*%
X57038748Y-134255000D03*
X58863748Y-134255000D03*
%TD*%
D13*
%TO.C,R9*%
X80723748Y-137080000D03*
X80723748Y-135255000D03*
%TD*%
D25*
%TO.C,U2*%
X114288748Y-125055000D03*
X114288748Y-124405000D03*
X114288748Y-123755000D03*
X114288748Y-123105000D03*
X114288748Y-122455000D03*
X114288748Y-121805000D03*
X114288748Y-121155000D03*
X114288748Y-120505000D03*
X114288748Y-119855000D03*
X114288748Y-119205000D03*
X114288748Y-118555000D03*
X114288748Y-117905000D03*
X114288748Y-117255000D03*
X114288748Y-116605000D03*
X120013748Y-116605000D03*
X120013748Y-117255000D03*
X120013748Y-117905000D03*
X120013748Y-118555000D03*
X120013748Y-119205000D03*
X120013748Y-119855000D03*
X120013748Y-120505000D03*
X120013748Y-121155000D03*
X120013748Y-121805000D03*
X120013748Y-122455000D03*
X120013748Y-123105000D03*
X120013748Y-123755000D03*
X120013748Y-124405000D03*
X120013748Y-125055000D03*
%TD*%
D13*
%TO.C,R13*%
X93763748Y-142755000D03*
X93763748Y-140930000D03*
%TD*%
%TO.C,R12*%
X85923748Y-137080000D03*
X85923748Y-135255000D03*
%TD*%
%TO.C,R5*%
X61313748Y-115767500D03*
X61313748Y-113942500D03*
%TD*%
D26*
%TO.C,C11*%
X123533748Y-123318748D03*
X123533748Y-125218748D03*
%TD*%
%TO.C,C16*%
X114333748Y-128331248D03*
X114333748Y-130231248D03*
%TD*%
D24*
%TO.C,R18*%
X132013748Y-160355000D03*
X133838748Y-160355000D03*
%TD*%
D27*
%TO.C,C12*%
X123113748Y-115755000D03*
X125013748Y-115755000D03*
%TD*%
D26*
%TO.C,C9*%
X126633748Y-123368748D03*
X126633748Y-125268748D03*
%TD*%
D18*
%TO.C,R14*%
X107951248Y-153155000D03*
X109776248Y-153155000D03*
%TD*%
D13*
%TO.C,R10*%
X82513748Y-137080000D03*
X82513748Y-135255000D03*
%TD*%
D24*
%TO.C,R19*%
X132013748Y-163855000D03*
X133838748Y-163855000D03*
%TD*%
D14*
%TO.C,C30*%
X94951248Y-161905000D03*
X98076248Y-161905000D03*
%TD*%
D28*
%TO.C,C24*%
X101495800Y-145368110D03*
X101495800Y-147268110D03*
%TD*%
%TO.C,C23*%
X99246248Y-145355000D03*
X99246248Y-147255000D03*
%TD*%
D22*
%TO.C,C28*%
X100176248Y-159605000D03*
X102251248Y-159605000D03*
%TD*%
D28*
%TO.C,C3*%
X125513748Y-120655000D03*
X125513748Y-118755000D03*
%TD*%
D23*
%TO.C,R17*%
X104013748Y-160192500D03*
X104013748Y-162017500D03*
%TD*%
D22*
%TO.C,C25*%
X89813748Y-161230000D03*
X87738748Y-161230000D03*
%TD*%
D13*
%TO.C,R11*%
X84223748Y-137080000D03*
X84223748Y-135255000D03*
%TD*%
D10*
%TO.C,C6*%
X127151248Y-115755000D03*
X130276248Y-115755000D03*
%TD*%
D27*
%TO.C,C27*%
X98263748Y-159605000D03*
X96363748Y-159605000D03*
%TD*%
D11*
%TO.C,D4*%
X135901248Y-163855000D03*
X137951248Y-163855000D03*
%TD*%
D29*
%TO.C,C17*%
X110826248Y-128655000D03*
X108926248Y-128655000D03*
%TD*%
D30*
%TO.C,D2*%
X142513748Y-140755000D03*
X142513748Y-142805000D03*
%TD*%
D24*
%TO.C,R15*%
X57101248Y-149170000D03*
X58926248Y-149170000D03*
%TD*%
D26*
%TO.C,C10*%
X125233748Y-128018748D03*
X125233748Y-129918748D03*
%TD*%
D22*
%TO.C,C26*%
X72176248Y-148555000D03*
X74251248Y-148555000D03*
%TD*%
D12*
%TO.C,C15*%
X116833748Y-131581248D03*
X116833748Y-128456248D03*
%TD*%
D31*
%TO.C,X1*%
X99246248Y-137405000D03*
X96706248Y-137405000D03*
X96706248Y-139605000D03*
X99246248Y-139605000D03*
%TD*%
D27*
%TO.C,C19*%
X100026248Y-134905000D03*
X98126248Y-134905000D03*
%TD*%
D23*
%TO.C,R4*%
X130013748Y-120580000D03*
X130013748Y-118755000D03*
%TD*%
%TO.C,R7*%
X108888748Y-133095000D03*
X108888748Y-131270000D03*
%TD*%
D26*
%TO.C,C4*%
X132013748Y-118767500D03*
X132013748Y-120667500D03*
%TD*%
D22*
%TO.C,C20*%
X72301248Y-133605000D03*
X74376248Y-133605000D03*
%TD*%
M02*
