M48
INCH
T1C0.0098
T2C0.0197
T3C0.0197
T4C0.0295
T5C0.0315
T6C0.0374
T7C0.0394
%
G90
G05
T1
X2.1856Y-5.2463
X2.2053Y-5.8368
X2.4415Y-4.4392
X2.6383Y-4.951
X2.6777Y-5.0297
X2.7958Y-5.0297
X2.8942Y-4.951
X3.1895Y-5.5219
X3.2092Y-5.3644
X3.2289Y-5.4825
X3.2683Y-5.5415
X3.2879Y-5.3644
X3.361Y-5.2799
X3.4257Y-5.4825
X3.4257Y-5.5612
X3.721Y-5.4037
X3.721Y-6.1321
X3.7407Y-5.6793
X3.7407Y-6.014
X3.8391Y-6.0952
X3.8588Y-5.5809
X3.9179Y-5.8565
X3.9375Y-6.2305
X3.9572Y-5.6911
X3.9769Y-5.955
X4.0163Y-6.1911
X4.036Y-5.8565
X4.0557Y-5.5219
X4.0753Y-5.8565
X4.0753Y-6.0533
X4.095Y-6.1911
X4.1344Y-5.5612
X4.2131Y-4.9116
X4.2131Y-5.9352
X4.2131Y-6.4077
X4.2525Y-5.9943
X4.3312Y-4.5179
X4.3312Y-5.3053
X4.3903Y-4.5967
X4.3903Y-5.1258
X4.4297Y-5.9943
X4.4494Y-4.9116
X4.5478Y-4.636
X4.6659Y-4.7148
X4.6659Y-4.8722
X4.6659Y-5.2069
X4.7643Y-5.1872
X4.9612Y-4.5967
X5.0005Y-4.7738
X5.0202Y-4.6557
X5.0202Y-4.9707
X5.1777Y-4.4195
X5.1777Y-6.2699
X5.1777Y-6.4864
X5.1974Y-4.6163
X5.2192Y-4.7956
X5.5714Y-5.8171
T2
X3.6816Y-6.447
X4.5281Y-5.8762
X4.6659Y-6.0927
X4.725Y-5.0888
X4.8037Y-5.6793
X5.0202Y-5.64
X5.099Y-5.9549
X5.099Y-6.0533
T3
X2.4974Y-5.973
X2.4974Y-6.173
X2.4984Y-5.3963
X2.4984Y-5.5963
X2.8974Y-5.973
X2.8974Y-6.173
X2.8984Y-5.3963
X2.8984Y-5.5963
T4
X2.1836Y-4.951
X2.1836Y-5.0297
X2.4789Y-4.951
X2.4789Y-5.0297
X2.5793Y-4.4589
X2.658Y-4.4589
X3.3155Y-4.4628
X3.3942Y-4.4628
X3.473Y-4.4628
X3.5517Y-4.4628
X3.7919Y-4.4628
X3.8706Y-4.4628
X3.9494Y-4.4628
X4.6068Y-6.3683
X4.6856Y-6.3683
X4.9179Y-6.3663
X4.9966Y-6.3663
T5
X5.099Y-5.325
X5.099Y-5.4234
X5.3155Y-5.6022
X5.3155Y-5.7006
X5.3155Y-5.9385
X5.3155Y-6.0369
T6
X5.6698Y-4.8526
X5.6698Y-4.951
X5.6698Y-5.0494
X5.6698Y-5.1478
T7
X2.2043Y-6.0435
X2.2043Y-6.1419
X2.2053Y-5.4628
X2.2053Y-5.5612
X2.5197Y-6.3449
X2.5207Y-5.7522
X2.6197Y-6.3449
X2.6207Y-5.7522
X2.8933Y-4.4392
X2.9336Y-4.703
X2.9336Y-4.803
X2.9933Y-4.4392
X3.0933Y-4.4392
X3.1683Y-5.8762
X3.2683Y-5.8762
X3.3683Y-5.8762
X3.4683Y-5.8762
X3.4873Y-6.0695
X3.4873Y-6.1695
X4.1728Y-5.2098
X4.1728Y-5.3098
X4.2328Y-4.4967
X4.2328Y-4.5967
X4.2919Y-5.9156
X4.2919Y-6.2551
X4.3312Y-5.5219
X4.3312Y-5.6219
X4.3919Y-5.9156
X4.3919Y-6.2551
X4.6462Y-5.5022
X4.7462Y-5.5022
X5.3746Y-5.2841
X5.3746Y-5.3841
T0
M30
